<svg width="1109" height="661" viewBox="0 0 1109 661" fill="none" xmlns="http://www.w3.org/2000/svg">
<path d="M773.057 169.702C768.969 154.43 761.663 140.386 751.709 128.667C739.946 114.825 726.188 103.123 710.966 94.0156C693.292 83.2122 674.498 74.6963 654.974 68.6442C633.468 61.946 611.405 57.5374 589.102 55.4813C566.064 53.2107 542.882 53.2107 519.844 55.4813C497.551 57.5372 475.498 61.9459 454.002 68.6442C434.467 74.6903 415.663 83.2065 397.98 94.0156C382.758 103.203 369.01 114.982 357.267 128.897C347.323 140.623 340.018 154.665 335.92 169.932C332.276 184.055 332.276 198.984 335.92 213.106C339.985 228.378 347.294 242.417 357.267 254.109C369.018 268.037 382.777 279.827 398.01 289.023C415.672 299.823 434.456 308.329 453.972 314.361C475.477 321.089 497.539 325.542 519.844 327.656C542.884 329.894 566.063 329.894 589.102 327.656C611.419 325.533 633.49 321.07 655.005 314.329C674.52 308.296 693.305 299.79 710.966 288.99C726.205 279.802 739.965 268.012 751.709 254.076C761.669 242.374 768.976 228.339 773.057 213.073C776.705 198.884 776.705 183.891 773.057 169.702Z" fill="#37474F"/>
<path d="M333.175 169.768H775.771V194.119L333.175 192.77V169.768Z" fill="#37474F"/>
<path d="M519.844 33.6636L554.427 169.701L454.002 46.958C475.494 40.2152 497.547 35.7624 519.844 33.6636Z" fill="#455A64"/>
<path d="M589.102 33.6637L554.519 169.702L519.936 33.5979C542.945 31.3551 566.096 31.3771 589.102 33.6637Z" fill="#455A64"/>
<path d="M654.974 46.9584L554.519 169.702L589.102 33.5981C611.411 35.7187 633.474 40.1935 654.974 46.9584Z" fill="#455A64"/>
<path d="M751.679 107.179C761.627 118.915 768.932 132.968 773.027 148.247L554.549 169.702L751.679 107.179Z" fill="#455A64"/>
<path d="M773.057 148.28C776.671 162.396 776.671 177.305 773.057 191.421L554.549 169.702L773.057 148.28Z" fill="#455A64"/>
<path d="M773.057 191.42C768.97 206.693 761.664 220.737 751.709 232.456L554.549 169.932L773.057 191.42Z" fill="#455A64"/>
<path d="M751.709 232.456C739.962 246.38 726.203 258.16 710.966 267.337L554.488 169.702L751.709 232.456Z" fill="#455A64"/>
<path d="M554.519 169.867L655.005 292.709C633.489 299.41 611.415 303.819 589.102 305.872L554.488 169.768L554.519 169.867Z" fill="#455A64"/>
<path d="M554.488 169.899L589.102 306.003C566.064 308.273 542.882 308.273 519.844 306.003L554.488 169.899Z" fill="#455A64"/>
<path d="M554.427 169.866L519.783 305.97C497.47 303.917 475.396 299.508 453.88 292.807L554.427 169.866Z" fill="#455A64"/>
<path d="M554.427 169.866L453.789 292.708C434.277 286.65 415.494 278.134 397.827 267.337L554.427 169.866Z" fill="#455A64"/>
<path d="M554.397 169.702L357.236 232.226C347.269 220.518 339.96 206.47 335.889 191.19L554.397 169.702Z" fill="#455A64"/>
<path d="M554.397 169.702L335.919 191.421C332.275 177.309 332.275 162.391 335.919 148.28L554.397 169.702Z" fill="#455A64"/>
<path d="M554.397 169.702L335.919 148.148C340.023 132.873 347.328 118.822 357.267 107.08L554.397 169.702Z" fill="#455A64"/>
<path d="M397.98 72.3628L554.397 169.702L357.267 107.179C369.014 93.2856 382.761 81.5293 397.98 72.3628Z" fill="#455A64"/>
<path d="M710.966 72.3632L554.519 169.702L654.974 46.8931C674.506 52.9628 693.302 61.5127 710.966 72.3632Z" fill="#455A64"/>
<path d="M710.966 72.3628C726.19 81.5206 739.939 93.278 751.679 107.179L554.549 169.702L710.966 72.3628Z" fill="#455A64"/>
<path d="M554.427 169.702L397.919 267.206C382.687 258.02 368.928 246.242 357.176 232.324L554.336 169.801L554.427 169.702Z" fill="#455A64"/>
<path d="M454.002 46.9585L554.427 169.702L397.98 72.2312C415.661 61.4433 434.467 52.9596 454.002 46.9585Z" fill="#455A64"/>
<path d="M554.519 169.866L710.966 267.337C693.299 278.134 674.516 286.65 655.005 292.708L554.519 169.866Z" fill="#455A64"/>
<path d="M420.639 32.4136L544.912 109.811L538.813 0.39502C493.098 2.50107 454.276 13.0313 420.639 32.4136Z" fill="#BA68C8"/>
<path opacity="0.2" d="M420.639 32.4136L544.912 109.811L538.813 0.39502C493.098 2.50107 454.276 13.0313 420.639 32.4136Z" fill="white"/>
<path d="M544.912 109.811V152.064L420.639 74.6334V32.4136L544.912 109.811Z" fill="#BA68C8"/>
<path opacity="0.1" d="M544.912 109.811V152.064L420.639 74.6334V32.4136L544.912 109.811Z" fill="black"/>
<path d="M706.025 43.2725L563.393 112.706V154.926L706.025 85.4923V43.2725Z" fill="#BA68C8"/>
<path opacity="0.3" d="M706.025 43.2725L563.393 112.706V154.926L706.025 85.4923V43.2725Z" fill="black"/>
<path d="M706.026 43.2729C667.631 15.0715 616.427 0.197443 557.081 0L560.893 68.4139L563.393 112.707L706.026 43.2729Z" fill="#BA68C8"/>
<path opacity="0.1" d="M706.026 43.2729C667.631 15.0715 616.427 0.197443 557.081 0L560.893 68.4139L563.393 112.707L706.026 43.2729Z" fill="black"/>
<path d="M557.05 0V42.2198L563.393 154.927V112.707L557.05 0Z" fill="#263238"/>
<path d="M592.395 194.02L665.313 269.707C669.399 268.028 673.181 266.416 677.511 264.178C727.739 239.761 753.997 203.168 753.966 166.247V124.455C748.446 108.561 733.259 108.593 717.37 94.6079L568.455 167.004L566.961 167.727L592.395 194.02Z" fill="#BA68C8"/>
<path opacity="0.6" d="M592.395 194.02L665.313 269.707C669.399 268.028 673.181 266.416 677.511 264.178C727.739 239.761 753.997 203.168 753.966 166.247V124.455C748.446 108.561 733.259 108.593 717.37 94.6079L568.455 167.004L566.961 167.727L592.395 194.02Z" fill="white"/>
<path d="M592.396 151.8L665.313 227.487C669.399 225.808 673.181 224.196 677.511 221.925C761.59 180.956 778.425 105.928 717.431 52.2563L568.517 124.652L567.022 125.376L592.396 151.8Z" fill="#BA68C8"/>
<path opacity="0.8" d="M592.396 151.8L665.313 227.487C669.399 225.808 673.181 224.196 677.511 221.925C761.59 180.956 778.425 105.928 717.431 52.2563L568.517 124.652L567.022 125.376L592.396 151.8Z" fill="white"/>
<path d="M665.19 269.641V227.388L566.87 125.475V167.694L665.19 269.641Z" fill="#BA68C8"/>
<path opacity="0.6" d="M665.19 269.641V227.388L566.87 125.475V167.694L665.19 269.641Z" fill="white"/>
<path d="M407.708 82.6953C386.757 96.9441 363.488 105.928 355.01 123.237V165.49C355.01 187.504 364.495 209.815 384.165 230.218C411.612 258.617 455.069 278.69 506.7 286.686C554.481 294.298 603.23 290.466 649.485 275.465V233.245L585.29 208.894L547.596 169.702L407.708 82.6953Z" fill="#BA68C8"/>
<path opacity="0.6" d="M407.708 82.6953C386.757 96.9441 363.488 105.928 355.01 123.237V165.49C355.01 187.504 364.495 209.815 384.165 230.218C411.612 258.617 455.069 278.69 506.7 286.686C554.481 294.298 603.23 290.466 649.485 275.465V233.245L585.29 208.894L547.596 169.702L407.708 82.6953Z" fill="black"/>
<path d="M407.708 40.4756C347.508 81.3462 337.81 139.921 384.165 187.965C411.612 216.397 455.069 236.437 506.7 244.467C554.482 252.061 603.227 248.23 649.485 233.245L585.29 166.674L547.596 127.614L407.708 40.4756Z" fill="#BA68C8"/>
<path opacity="0.3" d="M407.708 40.4756C347.508 81.3462 337.81 139.921 384.165 187.965C411.612 216.397 455.069 236.437 506.7 244.467C554.482 252.061 603.227 248.23 649.485 233.245L585.29 166.674L547.596 127.614L407.708 40.4756Z" fill="black"/>
<path d="M1106.23 500.912C1102.14 485.64 1094.84 471.596 1084.88 459.877C1073.15 445.955 1059.4 434.176 1044.17 424.995C1026.5 414.192 1007.7 405.676 988.18 399.624C966.673 392.926 944.61 388.517 922.307 386.461C899.269 384.19 876.087 384.19 853.049 386.461C830.757 388.52 808.704 392.929 787.207 399.624C767.684 405.676 748.89 414.192 731.216 424.995C715.979 434.173 702.219 445.953 690.472 459.877C680.528 471.603 673.223 485.645 669.125 500.912C665.481 515.035 665.481 529.963 669.125 544.086C673.19 559.358 680.5 573.397 690.472 585.088C702.224 599.017 715.982 610.806 731.216 620.003C748.882 630.791 767.666 639.296 787.177 645.341C808.697 652.023 830.769 656.432 853.08 658.504C876.119 660.742 899.298 660.742 922.338 658.504C944.649 656.435 966.721 652.026 988.241 645.341C1007.76 639.312 1026.55 630.794 1044.2 619.97C1059.45 610.795 1073.22 599.015 1084.98 585.088C1094.93 573.38 1102.23 559.347 1106.32 544.086C1109.92 529.952 1109.89 515.028 1106.23 500.912Z" fill="#37474F"/>
<path d="M666.35 500.879H1108.95V525.23L666.35 523.881V500.879Z" fill="#37474F"/>
<path d="M853.019 364.775L887.633 500.879L787.177 378.07C808.67 371.33 830.722 366.877 853.019 364.775Z" fill="#455A64"/>
<path d="M922.277 364.775L887.693 500.879L853.08 364.775C876.098 362.509 899.259 362.509 922.277 364.775Z" fill="#455A64"/>
<path d="M988.149 378.07L887.693 500.879L922.277 364.775C944.584 366.874 966.647 371.327 988.149 378.07Z" fill="#455A64"/>
<path d="M1084.85 438.323C1094.81 450.054 1102.11 464.109 1106.2 479.39L887.724 500.945L1084.85 438.323Z" fill="#455A64"/>
<path d="M1106.23 479.39C1109.86 493.504 1109.86 508.418 1106.23 522.532L887.755 500.945L1106.23 479.39Z" fill="#455A64"/>
<path d="M1106.23 522.532C1102.14 537.8 1094.83 551.842 1084.88 563.567L887.724 501.043L1106.23 522.532Z" fill="#455A64"/>
<path d="M1084.91 563.567C1073.14 577.475 1059.38 589.253 1044.14 598.449L887.663 500.945L1084.91 563.567Z" fill="#455A64"/>
<path d="M887.693 500.978L988.179 623.82C966.66 630.505 944.588 634.914 922.276 636.983L887.663 500.879L887.693 500.978Z" fill="#455A64"/>
<path d="M887.663 501.01L922.277 636.982C899.238 639.237 876.057 639.237 853.019 636.982L887.663 501.01Z" fill="#455A64"/>
<path d="M887.633 500.978L853.019 636.983C830.708 634.911 808.636 630.502 787.116 623.82L887.633 500.978Z" fill="#455A64"/>
<path d="M887.633 500.978L786.994 623.82C767.486 617.75 748.704 609.234 731.033 598.449L887.633 500.978Z" fill="#455A64"/>
<path d="M887.572 500.945L690.412 563.468C680.444 551.761 673.135 537.712 669.064 522.433L887.572 500.945Z" fill="#455A64"/>
<path d="M887.571 500.945L669.094 522.532C665.45 508.42 665.45 493.502 669.094 479.39L887.571 500.945Z" fill="#455A64"/>
<path d="M887.572 500.912L669.094 479.358C673.191 464.08 680.496 450.027 690.442 438.29L887.572 500.912Z" fill="#455A64"/>
<path d="M731.185 403.342L887.572 500.78L690.442 438.257C702.187 424.321 715.946 412.53 731.185 403.342Z" fill="#455A64"/>
<path d="M1044.14 403.342L887.693 500.78L988.149 377.971C1007.68 384.009 1026.47 392.526 1044.14 403.342Z" fill="#455A64"/>
<path d="M1044.14 403.342C1059.37 412.51 1073.12 424.279 1084.85 438.191L887.755 500.714L1044.14 403.342Z" fill="#455A64"/>
<path d="M887.632 500.912L731.155 598.449C715.929 589.253 702.172 577.475 690.411 563.567L887.572 501.044L887.632 500.912Z" fill="#455A64"/>
<path d="M787.177 378.07L887.632 500.879L731.185 403.342C748.858 392.56 767.653 384.077 787.177 378.07Z" fill="#455A64"/>
<path d="M887.693 500.978L1044.14 598.449C1026.47 609.246 1007.69 617.762 988.18 623.82L887.693 500.978Z" fill="#455A64"/>
<path d="M692.699 447.471V515.852C691.093 509.603 690.272 503.151 690.259 496.667V447.471H692.699Z" fill="#BA68C8"/>
<path opacity="0.3" d="M692.699 447.471V515.852C691.093 509.603 690.272 503.151 690.259 496.667V447.471H692.699Z" fill="black"/>
<path d="M887.572 447.536L692.699 466.754C689.465 454.169 689.465 440.871 692.699 428.286L887.572 447.536Z" fill="#BA68C8"/>
<path d="M887.572 447.471L692.699 428.22C696.361 414.594 702.883 402.062 711.759 391.594L887.572 447.471Z" fill="#BA68C8"/>
<path d="M748.08 360.563L887.571 447.471L711.759 391.529C722.246 379.169 734.51 368.713 748.08 360.563Z" fill="#BA68C8"/>
<path d="M798.034 337.923L887.633 447.438L748.08 360.563C763.844 350.914 780.612 343.314 798.034 337.923Z" fill="#BA68C8"/>
<path d="M856.77 326.076L887.632 447.438L798.033 337.923C817.205 331.905 836.878 327.937 856.77 326.076Z" fill="#BA68C8"/>
<path d="M918.709 326.077L887.694 447.438L856.831 326.077C877.413 324.03 898.126 324.03 918.709 326.077Z" fill="#BA68C8"/>
<path d="M977.292 337.923L887.693 447.438L918.708 326.076C938.548 327.948 958.17 331.916 977.292 337.923Z" fill="#BA68C8"/>
<g opacity="0.2">
<path d="M887.572 447.537L692.699 466.754C689.465 454.169 689.465 440.871 692.699 428.286L887.572 447.537Z" fill="white"/>
<path d="M887.572 447.471L692.699 428.22C696.361 414.594 702.883 402.062 711.759 391.594L887.572 447.471Z" fill="white"/>
<path d="M748.08 360.563L887.572 447.471L711.759 391.529C722.246 379.169 734.511 368.713 748.08 360.563Z" fill="white"/>
<path d="M798.034 337.923L887.633 447.438L748.08 360.563C763.844 350.914 780.612 343.314 798.034 337.923Z" fill="white"/>
<path d="M856.77 326.076L887.633 447.438L798.034 337.923C817.205 331.905 836.879 327.937 856.77 326.076Z" fill="white"/>
<path d="M918.709 326.077L887.694 447.438L856.831 326.077C877.413 324.03 898.126 324.03 918.709 326.077Z" fill="white"/>
<path d="M977.292 337.923L887.694 447.438L918.709 326.076C938.549 327.948 958.171 331.916 977.292 337.923Z" fill="white"/>
</g>
<path d="M1052.89 480.312L1023.65 509.929L1001.42 532.602L980.22 554.123L977.384 556.986V606.116C994.802 600.73 1011.57 593.141 1027.34 583.509C1040.92 575.289 1053.2 564.767 1063.69 552.346C1072.56 541.912 1079.07 529.397 1082.69 515.786C1084.3 509.539 1085.14 503.087 1085.16 496.601V447.504L1052.89 480.312Z" fill="#BA68C8"/>
<path opacity="0.3" d="M1052.89 480.312L1023.65 509.929L1001.42 532.602L980.22 554.123L977.384 556.986V606.116C994.802 600.73 1011.57 593.141 1027.34 583.509C1040.92 575.289 1053.2 564.767 1063.69 552.346C1072.56 541.912 1079.07 529.397 1082.69 515.786C1084.3 509.539 1085.14 503.087 1085.16 496.601V447.504L1052.89 480.312Z" fill="black"/>
<path d="M1063.57 391.66C1072.43 402.136 1078.95 414.666 1082.63 428.286L887.724 447.536L1063.57 391.66Z" fill="#BA68C8"/>
<path d="M1085.07 447.569C1085.04 454.065 1084.21 460.529 1082.6 466.787L1023.56 460.929L887.724 447.503L1052.8 431.05L1082.6 428.121C1084.23 434.454 1085.06 440.996 1085.07 447.569Z" fill="#BA68C8"/>
<path d="M1082.6 466.787C1078.97 480.394 1072.46 492.909 1063.6 503.347L1001.32 483.603L887.724 447.405L1023.56 460.831L1082.6 466.787Z" fill="#BA68C8"/>
<path d="M1063.6 503.347C1053.11 515.768 1040.83 526.29 1027.25 534.51L980.129 505.091L887.755 447.569L1001.35 483.767L1063.6 503.347Z" fill="#BA68C8"/>
<path d="M1027.25 360.563L887.693 447.504L977.292 337.989C994.707 343.371 1011.47 350.948 1027.25 360.563Z" fill="#BA68C8"/>
<path d="M1027.25 360.563C1040.82 368.761 1053.08 379.261 1063.57 391.66L887.724 447.602L1027.25 360.563Z" fill="#BA68C8"/>
<path d="M1027.25 534.51C1011.48 544.132 994.71 551.709 977.292 557.084L887.755 447.569L980.129 505.091L1027.25 534.51Z" fill="#BA68C8"/>
<g opacity="0.2">
<path d="M1063.57 391.66C1072.43 402.136 1078.95 414.666 1082.63 428.286L887.724 447.536L1063.57 391.66Z" fill="white"/>
<path d="M1085.07 447.569C1085.04 454.066 1084.21 460.529 1082.6 466.787L1023.56 460.93L887.724 447.504L1052.8 431.05L1082.6 428.121C1084.23 434.454 1085.06 440.996 1085.07 447.569Z" fill="white"/>
<path d="M1082.6 466.787C1078.97 480.394 1072.46 492.908 1063.6 503.347L1001.32 483.603L887.724 447.405L1023.56 460.831L1082.6 466.787Z" fill="white"/>
<path d="M1063.6 503.347C1053.1 515.768 1040.83 526.29 1027.25 534.51L980.128 505.091L887.754 447.569L1001.35 483.767L1063.6 503.347Z" fill="white"/>
<path d="M1027.25 360.563L887.693 447.504L977.292 337.989C994.707 343.371 1011.47 350.948 1027.25 360.563Z" fill="white"/>
<path d="M1027.25 360.563C1040.82 368.761 1053.08 379.261 1063.57 391.66L887.724 447.602L1027.25 360.563Z" fill="white"/>
<path d="M1027.25 534.51C1011.48 544.132 994.709 551.709 977.292 557.084L887.754 447.569L980.128 505.091L1027.25 534.51Z" fill="white"/>
</g>
<path d="M977.323 557.117V606.247L887.633 496.601V447.438L977.323 557.117Z" fill="#263238"/>
<path d="M887.633 496.601L692.699 515.917V466.754L887.633 447.438V496.601Z" fill="#BA68C8"/>
<path opacity="0.1" d="M887.633 496.601L692.699 515.917V466.754L887.633 447.438V496.601Z" fill="black"/>
<path d="M439.913 500.912C435.825 485.64 428.518 471.596 418.565 459.877C406.822 445.961 393.074 434.183 377.852 424.995C360.17 414.186 341.365 405.67 321.83 399.624C300.334 392.926 278.281 388.517 255.988 386.461C232.95 384.19 209.768 384.19 186.73 386.461C164.428 388.52 142.365 392.929 120.858 399.624C101.313 405.671 82.4989 414.187 64.8052 424.995C49.5789 434.176 35.8302 445.955 24.0923 459.877C14.139 471.596 6.83268 485.64 2.74471 500.912C-0.86982 515.039 -0.86982 529.959 2.74471 544.086C6.8257 559.351 14.1331 573.387 24.0923 585.088C35.8278 599.021 49.5767 610.812 64.8052 620.003C82.4665 630.803 101.251 639.308 120.766 645.341C142.286 652.026 164.358 656.435 186.669 658.504C209.709 660.742 232.888 660.742 255.927 658.504C278.239 656.435 300.31 652.026 321.83 645.341C341.351 639.312 360.137 630.794 377.791 619.97C393.041 610.798 406.811 599.018 418.565 585.088C428.524 573.387 435.832 559.351 439.913 544.086C443.527 529.959 443.527 515.039 439.913 500.912Z" fill="#37474F"/>
<path d="M0 500.879H442.596V525.23L0 523.881V500.879Z" fill="#37474F"/>
<path d="M186.791 364.775L221.374 500.879L120.919 378.07C142.422 371.33 164.484 366.877 186.791 364.775Z" fill="#455A64"/>
<path d="M255.927 364.775L221.344 500.879L186.791 364.775C209.789 362.513 232.93 362.513 255.927 364.775Z" fill="#455A64"/>
<path d="M321.769 378.07L221.344 500.879L255.927 364.775C278.224 366.874 300.277 371.327 321.769 378.07Z" fill="#455A64"/>
<path d="M418.565 438.323C428.519 450.054 435.825 464.109 439.913 479.39L221.405 500.945L418.565 438.323Z" fill="#455A64"/>
<path d="M439.913 479.39C443.526 493.506 443.526 508.416 439.913 522.532L221.405 500.945L439.913 479.39Z" fill="#455A64"/>
<path d="M439.913 522.532C435.826 537.804 428.519 551.849 418.565 563.567L221.405 501.043L439.913 522.532Z" fill="#455A64"/>
<path d="M418.565 563.567C406.804 577.475 393.047 589.253 377.822 598.449L221.313 500.945L418.565 563.567Z" fill="#455A64"/>
<path d="M221.344 500.978L321.83 623.82C300.31 630.505 278.239 634.914 255.927 636.983L221.283 500.879L221.344 500.978Z" fill="#455A64"/>
<path d="M221.283 501.01L255.927 636.982C232.929 639.229 209.79 639.229 186.791 636.982L221.283 501.01Z" fill="#455A64"/>
<path d="M221.252 500.978L186.791 636.983C164.48 634.914 142.408 630.505 120.888 623.82L221.252 500.978Z" fill="#455A64"/>
<path d="M221.252 500.978L120.614 623.82C101.155 617.75 82.4234 609.234 64.8052 598.449L221.252 500.978Z" fill="#455A64"/>
<path d="M221.222 500.945L24.0618 563.468C14.1076 551.75 6.80118 537.705 2.71423 522.433L221.222 500.945Z" fill="#455A64"/>
<path d="M221.222 500.945L2.71414 522.532C-0.899343 508.416 -0.899343 493.506 2.71414 479.39L221.222 500.945Z" fill="#455A64"/>
<path d="M221.222 500.912L2.71423 479.358C6.80199 464.076 14.108 450.021 24.0618 438.29L221.222 500.912Z" fill="#455A64"/>
<path d="M64.8052 403.342L221.222 500.78L24.0923 438.257C35.8256 424.321 49.5749 412.53 64.8052 403.342Z" fill="#455A64"/>
<path d="M377.791 403.342L221.344 500.78L321.769 377.971C341.309 384.003 360.115 392.52 377.791 403.342Z" fill="#455A64"/>
<path d="M377.791 403.342C393.042 412.553 406.812 424.365 418.565 438.323L221.436 500.846L377.791 403.342Z" fill="#455A64"/>
<path d="M221.252 500.912L64.8051 598.449C49.574 589.261 35.8161 577.483 24.0618 563.567L221.222 501.044L221.252 500.912Z" fill="#455A64"/>
<path d="M120.797 378.07L221.252 500.879L64.8052 403.342C82.4779 392.56 101.273 384.077 120.797 378.07Z" fill="#455A64"/>
<path d="M221.344 500.978L377.791 598.449C360.125 609.246 341.342 617.762 321.83 623.82L221.344 500.978Z" fill="#455A64"/>
<path d="M280.141 416.505L305.362 385.638C305.362 349.441 264.375 348.552 246.26 346.808C228.145 345.064 197.069 333.843 197.069 375.042L205.73 409.134C230.738 407.4 255.844 409.887 280.141 416.505Z" fill="#BA68C8"/>
<path opacity="0.6" d="M280.141 416.505L305.362 385.638C305.362 349.441 264.375 348.552 246.26 346.808C228.145 345.064 197.069 333.843 197.069 375.042L205.73 409.134C230.738 407.4 255.844 409.887 280.141 416.505Z" fill="white"/>
<path d="M280.141 368.033L305.362 337.199C270.047 327.282 233.461 323.702 197.069 326.603L205.73 360.563C230.743 358.861 255.849 361.382 280.141 368.033Z" fill="#BA68C8"/>
<path opacity="0.8" d="M280.141 368.033L305.362 337.199C270.047 327.282 233.461 323.702 197.069 326.603L205.73 360.563C230.743 358.861 255.849 361.382 280.141 368.033Z" fill="white"/>
<path d="M205.73 360.695V409.2L197.069 375.108V326.603L205.73 360.695Z" fill="#BA68C8"/>
<path d="M305.362 337.199L280.141 368.033V416.571L305.362 385.704V337.199Z" fill="#BA68C8"/>
<g opacity="0.6">
<path d="M205.73 360.695V409.2L197.069 375.108V326.603L205.73 360.695Z" fill="white"/>
<path d="M305.362 337.199L280.141 368.033V416.571L305.362 385.704V337.199Z" fill="white"/>
</g>
<path d="M292.462 371.949V420.454C302.985 424.12 313.14 428.915 322.775 434.769C331.184 439.92 338.908 446.274 345.739 453.657L395.205 437.961C385.37 427.128 374.169 417.845 361.933 410.385C348.423 402.026 333.968 368.132 292.462 371.949Z" fill="#BA68C8"/>
<path opacity="0.6" d="M292.462 371.949V420.454C302.985 424.12 313.14 428.915 322.775 434.769C331.184 439.92 338.908 446.274 345.739 453.657L395.205 437.961C385.37 427.128 374.169 417.845 361.933 410.385C348.423 402.026 333.968 368.132 292.462 371.949Z" fill="black"/>
<path d="M317.683 341.148L292.462 371.949C302.995 375.586 313.153 380.383 322.775 386.263C331.184 391.415 338.908 397.769 345.739 405.152L395.205 389.455C385.386 378.603 374.182 369.318 361.933 361.879C347.912 353.281 333.077 346.331 317.683 341.148Z" fill="#BA68C8"/>
<path opacity="0.3" d="M317.683 341.148L292.462 371.949C302.995 375.586 313.153 380.383 322.775 386.263C331.184 391.415 338.908 397.769 345.739 405.152L395.205 389.455C385.386 378.603 374.182 369.318 361.933 361.879C347.912 353.281 333.077 346.331 317.683 341.148Z" fill="black"/>
<path d="M345.739 405.152L395.205 389.423V437.961L345.739 453.657V405.152Z" fill="#BA68C8"/>
<path opacity="0.6" d="M345.739 405.152L395.205 389.423V437.961L345.739 453.657V405.152Z" fill="black"/>
<path d="M420.029 448.195H403.317C402.707 447.339 402.189 446.483 401.579 445.628L352.052 412.721V461.259C362.604 475.902 366.599 491.895 363.854 507.592L418.565 513.087C419.491 508.193 419.951 503.209 419.938 498.213L420.029 448.195Z" fill="#BA68C8"/>
<path opacity="0.6" d="M420.029 448.195H403.317C402.707 447.339 402.189 446.483 401.579 445.628L352.052 412.721V461.259C362.604 475.902 366.599 491.895 363.854 507.592L418.565 513.087C419.491 508.193 419.951 503.209 419.938 498.213L420.029 448.195Z" fill="black"/>
<path d="M363.824 459.285L418.565 464.583C423.018 441.778 417.376 418.315 401.548 397.123L352.022 412.82C362.574 427.463 366.721 443.489 363.824 459.285Z" fill="#BA68C8"/>
<path opacity="0.3" d="M363.824 459.285L418.565 464.583C423.018 441.778 417.376 418.315 401.548 397.123L352.022 412.82C362.574 427.463 366.721 443.489 363.824 459.285Z" fill="black"/>
<path d="M418.565 464.582V513.12L363.824 507.691V459.186L418.565 464.582Z" fill="#BA68C8"/>
<path opacity="0.6" d="M418.565 464.582V513.12L363.824 507.691V459.186L418.565 464.582Z" fill="black"/>
<path d="M192.067 410.582V362.044C161.571 346.874 104.786 362.274 85.7563 407.456L124.914 431.873C145.947 420.522 168.687 413.312 192.067 410.582Z" fill="#BA68C8"/>
<path opacity="0.3" d="M192.067 410.582V362.044C161.571 346.874 104.786 362.274 85.7563 407.456L124.914 431.873C145.947 420.522 168.687 413.312 192.067 410.582Z" fill="black"/>
<path d="M192.067 362.044L183.376 327.854C146.506 332.329 112.746 343.287 85.7869 358.951L124.944 383.335C145.968 371.988 168.698 364.778 192.067 362.044Z" fill="#BA68C8"/>
<path opacity="0.1" d="M192.067 362.044L183.376 327.854C146.506 332.329 112.746 343.287 85.7869 358.951L124.944 383.335C145.968 371.988 168.698 364.778 192.067 362.044Z" fill="black"/>
<path d="M124.914 383.335V431.873L85.7563 407.456V358.951L124.914 383.335Z" fill="#263238"/>
<path d="M83.9569 389.456L75.9059 413.511C49.5873 431.083 32.9667 452.242 26.1355 474.389L81.0293 479.786C86.0612 464.615 97.5279 450.169 115.277 437.994V389.456H83.9569Z" fill="#BA68C8"/>
<path opacity="0.3" d="M83.9569 389.456L75.9059 413.511C49.5873 431.083 32.9667 452.242 26.1355 474.389L81.0293 479.786C86.0612 464.615 97.5279 450.169 115.277 437.994V389.456H83.9569Z" fill="black"/>
<path d="M115.155 389.455L75.9059 365.005C49.5873 382.545 32.9667 403.737 26.1355 425.851L81.0293 431.28C85.9392 416.11 97.4059 401.631 115.155 389.455Z" fill="#BA68C8"/>
<path opacity="0.1" d="M115.155 389.455L75.9059 365.005C49.5873 382.545 32.9667 403.737 26.1355 425.851L81.0293 431.28C85.9392 416.11 97.4059 401.631 115.155 389.455Z" fill="black"/>
<path d="M26.1355 425.851V474.389L80.9073 479.785V431.28L26.1355 425.851Z" fill="#263238"/>
<path d="M78.7421 488.308V439.77L62.457 438.191L22.5675 449.412V497.884C22.823 517.144 29.2937 535.705 40.8654 550.371L90.3918 534.675C80.0535 520.031 76.0279 504.005 78.7421 488.308Z" fill="#BA68C8"/>
<path opacity="0.3" d="M78.7421 488.308V439.77L62.457 438.191L22.5675 449.412V497.884C22.823 517.144 29.2937 535.705 40.8654 550.371L90.3918 534.675C80.0535 520.031 76.0279 504.005 78.7421 488.308Z" fill="black"/>
<path d="M41.0483 501.866L90.5747 486.136V534.674L41.0483 550.371V501.866Z" fill="#263238"/>
<path d="M78.7726 439.771L23.8788 434.374C19.4263 457.211 25.0682 480.641 40.8959 501.866L90.4223 486.137C80.0535 471.493 76.0279 455.467 78.7726 439.771Z" fill="#BA68C8"/>
<path opacity="0.1" d="M78.7726 439.771L23.8788 434.374C19.4263 457.211 25.0682 480.641 40.8959 501.866L90.4223 486.137C80.0535 471.493 76.0279 455.467 78.7726 439.771Z" fill="black"/>
<path d="M137.356 550.305C114.149 535.859 102.56 516.937 102.56 498.016V449.412H340.036V497.917C340.036 516.872 328.448 535.793 305.24 550.239C258.885 579.198 183.742 579.198 137.356 550.305Z" fill="#37474F"/>
<path d="M221.313 523.453C286.882 523.453 340.036 490.333 340.036 449.478C340.036 408.623 286.882 375.503 221.313 375.503C155.744 375.503 102.59 408.623 102.59 449.478C102.59 490.333 155.744 523.453 221.313 523.453Z" fill="#455A64"/>
<path d="M124.914 564.192V558.006L47.3612 509.533V558.006C57.1998 568.848 68.4119 578.132 80.6634 585.582C94.6841 594.18 109.519 601.13 124.914 606.313L150.104 575.512C141.441 572.47 133.017 568.684 124.914 564.192Z" fill="#BA68C8"/>
<path opacity="0.3" d="M124.914 564.192V558.006L47.3612 509.533V558.006C57.1998 568.848 68.4119 578.132 80.6634 585.582C94.6841 594.18 109.519 601.13 124.914 606.313L150.104 575.512C141.441 572.47 133.017 568.684 124.914 564.192Z" fill="black"/>
<path d="M119.699 512.693C111.281 507.555 103.546 501.212 96.7045 493.837L47.2391 509.534C57.0856 520.366 68.2964 529.65 80.5414 537.11C94.5683 545.694 109.402 552.644 124.792 557.841L149.982 527.007C139.459 523.37 129.311 518.573 119.699 512.693Z" fill="#BA68C8"/>
<path opacity="0.1" d="M119.699 512.693C111.281 507.555 103.546 501.212 96.7045 493.837L47.2391 509.534C57.0856 520.366 68.2964 529.65 80.5414 537.11C94.5683 545.694 109.402 552.644 124.792 557.841L149.982 527.007C139.459 523.37 129.311 518.573 119.699 512.693Z" fill="black"/>
<path d="M124.914 606.346V557.841L150.104 527.007V575.545L124.914 606.346Z" fill="#263238"/>
<path d="M137.234 561.757V610.295C172.549 620.212 209.136 623.792 245.528 620.891V572.386L137.234 561.757Z" fill="#BA68C8"/>
<path opacity="0.1" d="M137.234 561.757V610.295C172.549 620.212 209.136 623.792 245.528 620.891V572.386L137.234 561.757Z" fill="black"/>
<path d="M162.394 530.923L137.173 561.757C172.489 571.67 209.073 575.26 245.467 572.386L236.867 538.261C211.84 540.013 186.713 537.537 162.394 530.923Z" fill="#BA68C8"/>
<path opacity="0.2" d="M162.394 530.923L137.173 561.757C172.489 571.67 209.073 575.26 245.467 572.386L236.867 538.261C211.84 540.013 186.713 537.537 162.394 530.923Z" fill="white"/>
<path d="M327.441 558.006L366.721 582.489C393.039 564.949 409.66 543.757 416.491 521.61V473.105L361.598 516.214C356.657 531.384 345.19 545.863 327.441 558.006Z" fill="#BA68C8"/>
<path opacity="0.1" d="M327.441 558.006L366.721 582.489C393.039 564.949 409.66 543.757 416.491 521.61V473.105L361.598 516.214C356.657 531.384 345.19 545.863 327.441 558.006Z" fill="black"/>
<path d="M327.441 509.501L366.721 533.983C393.039 516.411 409.66 495.252 416.491 473.105L361.598 467.708C356.657 482.879 345.19 497.325 327.441 509.501Z" fill="#BA68C8"/>
<path opacity="0.2" d="M327.441 509.501L366.721 533.983C393.039 516.411 409.66 495.252 416.491 473.105L361.598 467.708C356.657 482.879 345.19 497.325 327.441 509.501Z" fill="white"/>
<path d="M366.69 533.983V582.488L327.441 558.038V509.5L366.69 533.983Z" fill="#BA68C8"/>
<path opacity="0.3" d="M366.69 533.983V582.488L327.441 558.038V509.5L366.69 533.983Z" fill="black"/>
<path d="M259.221 571.169V584.331C256.323 584.825 253.457 585.253 250.529 585.615L259.221 619.772C294.749 615.494 328.722 605.129 356.81 588.741V540.071L259.221 571.169Z" fill="#BA68C8"/>
<path opacity="0.1" d="M259.221 571.169V584.331C256.323 584.825 253.457 585.253 250.529 585.615L259.221 619.772C294.749 615.494 328.722 605.129 356.81 588.741V540.071L259.221 571.169Z" fill="black"/>
<path d="M250.529 536.945L259.221 571.169C294.749 566.891 328.722 556.558 356.81 540.17L317.56 515.687C296.581 527.059 273.875 534.26 250.529 536.945Z" fill="#BA68C8"/>
<path opacity="0.2" d="M250.529 536.945L259.221 571.169C294.749 566.891 328.722 556.558 356.81 540.17L317.56 515.687C296.581 527.059 273.875 534.26 250.529 536.945Z" fill="white"/>
<path d="M259.221 571.07V619.575L250.529 585.483V536.945L259.221 571.07Z" fill="#BA68C8"/>
<path opacity="0.3" d="M259.221 571.07V619.575L250.529 585.483V536.945L259.221 571.07Z" fill="black"/>
</svg>
