<svg width="18" height="16" viewBox="0 0 18 16" fill="none" xmlns="http://www.w3.org/2000/svg">
<path d="M9 16C6.61312 16 4.32373 15.1571 2.63605 13.6568C0.948263 12.1565 0 10.1217 0 8C0 5.87833 0.948263 3.84331 2.63605 2.34315C4.32397 0.842902 6.61312 2.49558e-07 9 2.49558e-07C11.3869 2.49558e-07 13.6763 0.842902 15.364 2.34315C17.0517 3.84353 18 5.87833 18 8C17.9971 10.121 17.0481 12.1545 15.3608 13.654C13.6736 15.1538 11.3858 15.9974 9 16V16ZM12.4707 5.94242V5.94229C12.6285 5.80678 12.7185 5.62063 12.7204 5.42558C12.7224 5.23053 12.6361 5.04292 12.4809 4.90496C12.3257 4.76701 12.1146 4.69031 11.8952 4.69202C11.6758 4.69372 11.4663 4.77371 11.3139 4.91397L9 6.97149L6.68613 4.91397C6.47834 4.7356 6.18014 4.66779 5.90141 4.73572C5.62281 4.80366 5.40517 4.99713 5.32873 5.24478C5.2523 5.49254 5.32859 5.7576 5.52926 5.9423L7.84313 7.99983L5.52926 10.0573C5.37147 10.1929 5.28148 10.379 5.27956 10.5741C5.27764 10.7691 5.36393 10.9567 5.51912 11.0947C5.67431 11.2326 5.88538 11.3093 6.10481 11.3076C6.32424 11.3059 6.53366 11.2259 6.68612 11.0857L8.99999 9.02815L11.3139 11.0857C11.4663 11.2259 11.6757 11.3059 11.8952 11.3076C12.1146 11.3093 12.3257 11.2326 12.4809 11.0947C12.6361 10.9567 12.7223 10.7691 12.7204 10.5741C12.7185 10.379 12.6285 10.1929 12.4707 10.0573L10.1569 7.99983L12.4707 5.94242Z" fill="#E41D1D"/>
</svg>
