<svg width="552" height="333" viewBox="0 0 552 333" fill="none" xmlns="http://www.w3.org/2000/svg">
<rect width="552" height="333" fill="#DBEAFE"/>
<path d="M0 0.44397H92.4623V333H0V0.44397Z" fill="#BFDBFE"/>
<path d="M11.0955 31.968C11.0955 29.0254 13.5793 26.64 16.6432 26.64H75.8191C78.883 26.64 81.3668 29.0254 81.3668 31.968C81.3668 34.9106 78.883 37.296 75.8191 37.296H16.6432C13.5793 37.296 11.0955 34.9106 11.0955 31.968Z" fill="#93C5FD"/>
<path d="M33.2864 69.264C33.2864 67.7927 34.5283 66.6 36.0603 66.6H82.2915C83.8234 66.6 85.0653 67.7927 85.0653 69.264C85.0653 70.7353 83.8234 71.928 82.2915 71.928H36.0603C34.5283 71.928 33.2864 70.7353 33.2864 69.264Z" fill="white"/>
<path d="M33.2864 97.68C33.2864 96.2087 34.5283 95.016 36.0603 95.016H67.9598C69.4918 95.016 70.7337 96.2087 70.7337 97.68C70.7337 99.1513 69.4918 100.344 67.9598 100.344H36.0603C34.5283 100.344 33.2864 99.1513 33.2864 97.68Z" fill="white"/>
<path d="M33.2864 126.096C33.2864 124.625 34.5283 123.432 36.0603 123.432H75.8191C77.3511 123.432 78.593 124.625 78.593 126.096C78.593 127.567 77.3511 128.76 75.8191 128.76H36.0603C34.5283 128.76 33.2864 127.567 33.2864 126.096Z" fill="white"/>
<path fill-rule="evenodd" clip-rule="evenodd" d="M18.4924 75.036C21.8117 75.036 24.5025 72.4518 24.5025 69.264C24.5025 66.0762 21.8117 63.492 18.4924 63.492C15.1732 63.492 12.4824 66.0762 12.4824 69.264C12.4824 72.4518 15.1732 75.036 18.4924 75.036ZM18.4924 76.368C22.5777 76.368 25.8894 73.1874 25.8894 69.264C25.8894 65.3405 22.5777 62.16 18.4924 62.16C14.4072 62.16 11.0955 65.3405 11.0955 69.264C11.0955 73.1874 14.4072 76.368 18.4924 76.368Z" fill="#93C5FD"/>
<path d="M122.05 31.968C122.05 30.0063 123.706 28.416 125.749 28.416H179.377C181.42 28.416 183.075 30.0063 183.075 31.968C183.075 33.9297 181.42 35.52 179.377 35.52H125.749C123.706 35.52 122.05 33.9297 122.05 31.968Z" fill="#BFDBFE"/>
<path fill-rule="evenodd" clip-rule="evenodd" d="M220.291 175.185C220.319 172.652 222.413 170.496 225.106 170.496C226.759 170.496 227.974 171.282 228.75 172.021C228.966 172.227 229.151 172.433 229.307 172.622C229.462 172.433 229.647 172.227 229.863 172.021C230.639 171.282 231.855 170.496 233.507 170.496C236.2 170.496 238.295 172.652 238.322 175.185L238.322 175.185C238.373 180.124 234.24 183.541 230.087 186.249C229.857 186.4 229.585 186.48 229.307 186.48C229.028 186.48 228.756 186.4 228.526 186.249C224.372 183.541 220.24 180.124 220.291 175.185L220.291 175.185ZM229.926 174.126C229.808 174.35 229.569 174.492 229.307 174.492C229.045 174.492 228.805 174.35 228.687 174.126C228.687 174.125 228.687 174.125 228.686 174.124C228.685 174.122 228.684 174.12 228.682 174.116C228.681 174.114 228.68 174.112 228.679 174.11C228.671 174.096 228.658 174.073 228.64 174.042C228.603 173.982 228.547 173.891 228.469 173.78C228.315 173.558 228.082 173.261 227.773 172.967C227.152 172.374 226.267 171.828 225.106 171.828C223.225 171.828 221.698 173.346 221.678 175.198M229.926 174.126C229.926 174.125 229.926 174.125 229.927 174.124C229.928 174.122 229.931 174.117 229.935 174.11C229.942 174.096 229.955 174.073 229.973 174.042C230.01 173.982 230.067 173.891 230.144 173.78C230.298 173.558 230.531 173.261 230.84 172.967C231.461 172.374 232.346 171.828 233.507 171.828C235.388 171.828 236.915 173.346 236.935 175.198C236.978 179.361 233.497 182.416 229.307 185.148L229.307 185.148L229.306 185.148C225.115 182.416 221.635 179.361 221.678 175.199" fill="white"/>
<path d="M122.05 178.488C122.05 176.526 123.706 174.936 125.749 174.936H150.714C152.756 174.936 154.412 176.526 154.412 178.488C154.412 180.45 152.756 182.04 150.714 182.04H125.749C123.706 182.04 122.05 180.45 122.05 178.488Z" fill="#BFDBFE"/>
<path d="M161.809 178.488C161.809 176.526 163.465 174.936 165.508 174.936H207.116C209.158 174.936 210.814 176.526 210.814 178.488C210.814 180.45 209.158 182.04 207.116 182.04H165.508C163.465 182.04 161.809 180.45 161.809 178.488Z" fill="#BFDBFE"/>
<path d="M122.05 213.12C122.05 211.649 123.292 210.456 124.824 210.456H163.658C165.19 210.456 166.432 211.649 166.432 213.12C166.432 214.591 165.19 215.784 163.658 215.784H124.824C123.292 215.784 122.05 214.591 122.05 213.12Z" fill="white"/>
<path d="M122.05 225.552C122.05 224.081 123.292 222.888 124.824 222.888H184.462C185.994 222.888 187.236 224.081 187.236 225.552C187.236 227.023 185.994 228.216 184.462 228.216H124.824C123.292 228.216 122.05 227.023 122.05 225.552Z" fill="white"/>
<path d="M173.829 213.12C173.829 211.649 175.071 210.456 176.603 210.456H222.834C224.366 210.456 225.608 211.649 225.608 213.12C225.608 214.591 224.366 215.784 222.834 215.784H176.603C175.071 215.784 173.829 214.591 173.829 213.12Z" fill="white"/>
<path d="M122.05 66.6C122.05 65.1287 123.292 63.936 124.824 63.936H163.658C165.19 63.936 166.432 65.1287 166.432 66.6C166.432 68.0713 165.19 69.264 163.658 69.264H124.824C123.292 69.264 122.05 68.0713 122.05 66.6Z" fill="white"/>
<path d="M122.05 79.032C122.05 77.5607 123.292 76.368 124.824 76.368H220.523C222.055 76.368 223.296 77.5607 223.296 79.032C223.296 80.5033 222.055 81.696 220.523 81.696H124.824C123.292 81.696 122.05 80.5033 122.05 79.032Z" fill="white"/>
<path d="M173.829 66.6C173.829 65.1287 175.071 63.936 176.603 63.936H282.01C283.542 63.936 284.784 65.1287 284.784 66.6C284.784 68.0713 283.542 69.264 282.01 69.264H176.603C175.071 69.264 173.829 68.0713 173.829 66.6Z" fill="white"/>
<path fill-rule="evenodd" clip-rule="evenodd" d="M24.9648 91.908H12.9447V103.452H24.9648V91.908ZM11.5578 90.576V104.784H26.3518V90.576H11.5578Z" fill="#60A5FA"/>
<g clip-path="url(#clip0_81_488796)">
<rect x="320.382" y="31.968" width="92.4623" height="121.656" rx="20" fill="white"/>
<path d="M381.974 153.729C381.974 184.514 356.204 209.47 324.415 209.47C292.626 209.47 266.856 184.514 266.856 153.729C266.856 122.945 292.626 97.9886 324.415 97.9886C356.204 97.9886 381.974 122.945 381.974 153.729Z" fill="#FACC15"/>
<path fill-rule="evenodd" clip-rule="evenodd" d="M425.68 79.3476L395.605 50.4637L365.53 79.3476L395.605 108.231L425.68 79.3476ZM395.605 47.952L362.915 79.3476L395.605 110.743L428.295 79.3476L395.605 47.952Z" fill="#BFDBFE"/>
</g>
<path d="M18.9548 119.88L26.3518 132.185H11.5578L18.9548 119.88Z" fill="#93C5FD"/>
<rect x="427.638" y="31.968" width="92.4623" height="89.688" rx="20" fill="white"/>
<path fill-rule="evenodd" clip-rule="evenodd" d="M469.231 98.8419C478.45 98.8419 485.86 91.7312 485.86 83.0341C485.86 74.3369 478.45 67.2263 469.231 67.2263C460.013 67.2263 452.603 74.3369 452.603 83.0341C452.603 91.7312 460.013 98.8419 469.231 98.8419ZM469.231 103.282C480.968 103.282 490.483 94.2166 490.483 83.0341C490.483 71.8515 480.968 62.7863 469.231 62.7863C457.494 62.7863 447.98 71.8515 447.98 83.0341C447.98 94.2166 457.494 103.282 469.231 103.282Z" fill="#BFDBFE"/>
<path d="M478.89 76.6251L485.004 54.7117L501.707 70.7534L478.89 76.6251Z" fill="#FACC15"/>
<g clip-path="url(#clip1_81_488796)">
<rect x="320.382" y="167.832" width="92.4623" height="135.864" rx="20" fill="white"/>
<path fill-rule="evenodd" clip-rule="evenodd" d="M407.065 321.012C432.981 321.012 453.99 300.835 453.99 275.946C453.99 251.057 432.981 230.88 407.065 230.88C381.15 230.88 360.141 251.057 360.141 275.946C360.141 300.835 381.15 321.012 407.065 321.012ZM407.065 325.452C435.534 325.452 458.613 303.287 458.613 275.946C458.613 248.605 435.534 226.44 407.065 226.44C378.596 226.44 355.518 248.605 355.518 275.946C355.518 303.287 378.596 325.452 407.065 325.452Z" fill="#FACC15"/>
<path d="M368.925 208.337C368.925 216.729 361.784 223.533 352.975 223.533C344.166 223.533 337.025 216.729 337.025 208.337C337.025 199.944 344.166 193.14 352.975 193.14C361.784 193.14 368.925 199.944 368.925 208.337Z" fill="#BFDBFE"/>
<path fill-rule="evenodd" clip-rule="evenodd" d="M352.975 222.201C361.028 222.201 367.538 215.984 367.538 208.337C367.538 200.689 361.028 194.472 352.975 194.472C344.922 194.472 338.412 200.689 338.412 208.337C338.412 215.984 344.922 222.201 352.975 222.201ZM352.975 223.533C361.784 223.533 368.925 216.729 368.925 208.337C368.925 199.944 361.784 193.14 352.975 193.14C344.166 193.14 337.025 199.944 337.025 208.337C337.025 216.729 344.166 223.533 352.975 223.533Z" fill="#BFDBFE"/>
</g>
<g clip-path="url(#clip2_81_488796)">
<rect x="427.638" y="135.864" width="92.4623" height="151.848" rx="20" fill="white"/>
<path d="M541.367 245.31C541.367 256.222 532.26 265.068 521.025 265.068C509.791 265.068 500.683 256.222 500.683 245.31C500.683 234.398 509.791 225.552 521.025 225.552C532.26 225.552 541.367 234.398 541.367 245.31Z" fill="white"/>
<path fill-rule="evenodd" clip-rule="evenodd" d="M521.025 263.736C531.479 263.736 539.98 255.501 539.98 245.31C539.98 235.119 531.479 226.884 521.025 226.884C510.571 226.884 502.07 235.119 502.07 245.31C502.07 255.501 510.571 263.736 521.025 263.736ZM521.025 265.068C532.26 265.068 541.367 256.222 541.367 245.31C541.367 234.398 532.26 225.552 521.025 225.552C509.791 225.552 500.683 234.398 500.683 245.31C500.683 256.222 509.791 265.068 521.025 265.068Z" fill="#BFDBFE"/>
<path d="M504.382 189.366C504.382 203.956 492.17 215.784 477.106 215.784C462.041 215.784 449.829 203.956 449.829 189.366C449.829 174.776 462.041 162.948 477.106 162.948C492.17 162.948 504.382 174.776 504.382 189.366Z" fill="#BFDBFE"/>
<path d="M444.744 240.204L446.048 243.808L450.02 243.886L446.854 246.191L448.005 249.842L444.744 247.663L441.483 249.842L442.633 246.191L439.467 243.886L443.439 243.808L444.744 240.204Z" fill="#FACC15"/>
<path d="M463.699 240.204L465.003 243.808L468.975 243.886L465.809 246.191L466.959 249.842L463.699 247.663L460.438 249.842L461.588 246.191L458.422 243.886L462.394 243.808L463.699 240.204Z" fill="#FACC15"/>
<path d="M482.653 240.204L483.958 243.808L487.929 243.886L484.764 246.191L485.914 249.842L482.653 247.663L479.392 249.842L480.543 246.191L477.377 243.886L481.349 243.808L482.653 240.204Z" fill="#FACC15"/>
<path d="M501.608 240.204L502.912 243.808L506.884 243.886L503.719 246.191L504.869 249.842L501.608 247.663L498.347 249.842L499.498 246.191L496.332 243.886L500.304 243.808L501.608 240.204Z" fill="#FACC15"/>
<path d="M520.563 240.204L521.867 243.808L525.839 243.886L522.673 246.191L523.824 249.842L520.563 247.663L517.302 249.842L518.452 246.191L515.287 243.886L519.258 243.808L520.563 240.204Z" fill="#FACC15"/>
</g>
<defs>
<clipPath id="clip0_81_488796">
<rect x="320.382" y="31.968" width="92.4623" height="121.656" rx="20" fill="white"/>
</clipPath>
<clipPath id="clip1_81_488796">
<rect x="320.382" y="167.832" width="92.4623" height="135.864" rx="20" fill="white"/>
</clipPath>
<clipPath id="clip2_81_488796">
<rect x="427.638" y="135.864" width="92.4623" height="151.848" rx="20" fill="white"/>
</clipPath>
</defs>
</svg>
