<svg width="1100" height="671" viewBox="0 0 1100 671" fill="none" xmlns="http://www.w3.org/2000/svg">
<rect width="1100" height="671" fill="#DBEAFE"/>
<path d="M0 0.894775H184.255V671H0V0.894775Z" fill="#BFDBFE"/>
<path d="M22.1106 64.4159C22.1106 58.4866 27.0602 53.6799 33.1658 53.6799H151.089C157.194 53.6799 162.144 58.4866 162.144 64.4159C162.144 70.3453 157.194 75.1519 151.089 75.1519H33.1658C27.0602 75.1519 22.1106 70.3453 22.1106 64.4159Z" fill="#93C5FD"/>
<path d="M66.3317 139.568C66.3317 136.603 68.8065 134.2 71.8593 134.2H163.987C167.039 134.2 169.514 136.603 169.514 139.568C169.514 142.533 167.039 144.936 163.987 144.936H71.8593C68.8065 144.936 66.3317 142.533 66.3317 139.568Z" fill="white"/>
<path d="M66.3317 196.827C66.3317 193.862 68.8065 191.459 71.8593 191.459H135.427C138.48 191.459 140.955 193.862 140.955 196.827C140.955 199.791 138.48 202.195 135.427 202.195H71.8593C68.8065 202.195 66.3317 199.791 66.3317 196.827Z" fill="white"/>
<path d="M66.3317 254.085C66.3317 251.121 68.8065 248.717 71.8593 248.717H151.089C154.142 248.717 156.616 251.121 156.616 254.085C156.616 257.05 154.142 259.453 151.089 259.453H71.8593C68.8065 259.453 66.3317 257.05 66.3317 254.085Z" fill="white"/>
<path fill-rule="evenodd" clip-rule="evenodd" d="M36.8509 151.199C43.4654 151.199 48.8275 145.991 48.8275 139.568C48.8275 133.145 43.4654 127.937 36.8509 127.937C30.2365 127.937 24.8744 133.145 24.8744 139.568C24.8744 145.991 30.2365 151.199 36.8509 151.199ZM36.8509 153.883C44.9918 153.883 51.5913 147.474 51.5913 139.568C51.5913 131.662 44.9918 125.253 36.8509 125.253C28.7101 125.253 22.1106 131.662 22.1106 139.568C22.1106 147.474 28.7101 153.883 36.8509 153.883Z" fill="#93C5FD"/>
<path d="M243.216 64.4161C243.216 60.4632 246.516 57.2588 250.586 57.2588H357.454C361.524 57.2588 364.824 60.4632 364.824 64.4161C364.824 68.369 361.524 71.5735 357.454 71.5735H250.586C246.516 71.5735 243.216 68.369 243.216 64.4161Z" fill="#BFDBFE"/>
<path fill-rule="evenodd" clip-rule="evenodd" d="M438.987 353C439.041 347.897 443.215 343.552 448.581 343.552C451.874 343.552 454.296 345.135 455.842 346.626C456.273 347.041 456.642 347.455 456.951 347.836C457.261 347.455 457.63 347.041 458.061 346.626C459.607 345.135 462.029 343.552 465.322 343.552C470.688 343.552 474.862 347.897 474.916 353L474.916 353.001C475.018 362.953 466.783 369.839 458.506 375.295C458.048 375.598 457.506 375.76 456.951 375.76C456.397 375.76 455.855 375.598 455.397 375.295C447.119 369.839 438.884 362.953 438.987 353L438.987 353ZM458.186 350.865C457.951 351.318 457.474 351.604 456.951 351.604C456.429 351.604 455.952 351.318 455.717 350.866C455.717 350.865 455.716 350.864 455.715 350.862C455.714 350.859 455.711 350.854 455.707 350.847C455.705 350.843 455.703 350.839 455.7 350.834C455.684 350.805 455.659 350.759 455.622 350.698C455.55 350.575 455.437 350.392 455.283 350.17C454.975 349.721 454.511 349.124 453.895 348.53C452.657 347.337 450.894 346.236 448.581 346.236C444.832 346.236 441.79 349.295 441.75 353.027M458.186 350.865C458.186 350.865 458.187 350.864 458.187 350.862C458.19 350.857 458.195 350.848 458.203 350.834C458.218 350.805 458.244 350.759 458.28 350.698C458.353 350.575 458.466 350.392 458.619 350.17C458.928 349.721 459.392 349.124 460.008 348.53C461.246 347.337 463.009 346.236 465.322 346.236C469.07 346.236 472.113 349.295 472.153 353.027C472.239 361.414 465.303 367.571 456.953 373.075L456.951 373.076L456.95 373.075C448.599 367.571 441.664 361.414 441.75 353.028" fill="white"/>
<path d="M243.216 359.656C243.216 355.703 246.516 352.499 250.586 352.499H300.335C304.405 352.499 307.705 355.703 307.705 359.656C307.705 363.609 304.405 366.813 300.335 366.813H250.586C246.516 366.813 243.216 363.609 243.216 359.656Z" fill="#BFDBFE"/>
<path d="M322.446 359.656C322.446 355.703 325.745 352.499 329.816 352.499H412.73C416.801 352.499 420.1 355.703 420.1 359.656C420.1 363.609 416.801 366.813 412.73 366.813H329.816C325.745 366.813 322.446 363.609 322.446 359.656Z" fill="#BFDBFE"/>
<path d="M243.216 429.44C243.216 426.475 245.691 424.072 248.744 424.072H326.131C329.183 424.072 331.658 426.475 331.658 429.44C331.658 432.405 329.183 434.808 326.131 434.808H248.744C245.691 434.808 243.216 432.405 243.216 429.44Z" fill="white"/>
<path d="M243.216 454.491C243.216 451.526 245.691 449.123 248.744 449.123H367.588C370.641 449.123 373.116 451.526 373.116 454.491C373.116 457.455 370.641 459.859 367.588 459.859H248.744C245.691 459.859 243.216 457.455 243.216 454.491Z" fill="white"/>
<path d="M346.399 429.44C346.399 426.475 348.873 424.072 351.926 424.072H444.054C447.106 424.072 449.581 426.475 449.581 429.44C449.581 432.405 447.106 434.808 444.054 434.808H351.926C348.873 434.808 346.399 432.405 346.399 429.44Z" fill="white"/>
<path d="M243.216 134.2C243.216 131.235 245.691 128.832 248.744 128.832H326.131C329.183 128.832 331.658 131.235 331.658 134.2C331.658 137.165 329.183 139.568 326.131 139.568H248.744C245.691 139.568 243.216 137.165 243.216 134.2Z" fill="white"/>
<path d="M243.216 159.251C243.216 156.286 245.691 153.883 248.744 153.883H439.447C442.5 153.883 444.975 156.286 444.975 159.251C444.975 162.215 442.5 164.619 439.447 164.619H248.744C245.691 164.619 243.216 162.215 243.216 159.251Z" fill="white"/>
<path d="M346.399 134.2C346.399 131.235 348.873 128.832 351.926 128.832H561.977C565.029 128.832 567.504 131.235 567.504 134.2C567.504 137.165 565.029 139.568 561.977 139.568H351.926C348.873 139.568 346.399 137.165 346.399 134.2Z" fill="white"/>
<path fill-rule="evenodd" clip-rule="evenodd" d="M49.7487 185.196H25.7956V208.457H49.7487V185.196ZM23.0318 182.512V211.141H52.5126V182.512H23.0318Z" fill="#60A5FA"/>
<g clip-path="url(#clip0_69_129019)">
<rect x="638.442" y="64.416" width="184.255" height="245.139" rx="20" fill="white"/>
<path d="M761.18 309.767C761.18 371.798 709.826 422.084 646.479 422.084C583.131 422.084 531.778 371.798 531.778 309.767C531.778 247.735 583.131 197.449 646.479 197.449C709.826 197.449 761.18 247.735 761.18 309.767Z" fill="#FACC15"/>
<path fill-rule="evenodd" clip-rule="evenodd" d="M848.276 159.887L788.343 101.685L728.411 159.887L788.343 218.088L848.276 159.887ZM788.343 96.624L723.199 159.887L788.343 223.149L853.487 159.887L788.343 96.624Z" fill="#BFDBFE"/>
</g>
<path d="M37.7722 241.56L52.5126 266.354H23.0318L37.7722 241.56Z" fill="#93C5FD"/>
<rect x="852.178" y="64.416" width="184.255" height="180.723" rx="20" fill="white"/>
<path fill-rule="evenodd" clip-rule="evenodd" d="M935.062 199.168C953.432 199.168 968.199 184.84 968.199 167.315C968.199 149.79 953.432 135.462 935.062 135.462C916.693 135.462 901.926 149.79 901.926 167.315C901.926 184.84 916.693 199.168 935.062 199.168ZM935.062 208.114C958.451 208.114 977.411 189.848 977.411 167.315C977.411 144.782 958.451 126.515 935.062 126.515C911.674 126.515 892.714 144.782 892.714 167.315C892.714 189.848 911.674 208.114 935.062 208.114Z" fill="#BFDBFE"/>
<path d="M954.309 154.401L966.493 110.245L999.778 142.569L954.309 154.401Z" fill="#FACC15"/>
<g clip-path="url(#clip1_69_129019)">
<rect x="638.442" y="338.184" width="184.255" height="273.768" rx="20" fill="white"/>
<path fill-rule="evenodd" clip-rule="evenodd" d="M811.181 646.844C862.825 646.844 904.69 606.188 904.69 556.035C904.69 505.883 862.825 465.227 811.181 465.227C759.537 465.227 717.672 505.883 717.672 556.035C717.672 606.188 759.537 646.844 811.181 646.844ZM811.181 655.791C867.913 655.791 913.903 611.129 913.903 556.035C913.903 500.942 867.913 456.28 811.181 456.28C754.449 456.28 708.459 500.942 708.459 556.035C708.459 611.129 754.449 655.791 811.181 655.791Z" fill="#FACC15"/>
<path d="M735.176 419.801C735.176 436.713 720.946 450.422 703.392 450.422C685.838 450.422 671.608 436.713 671.608 419.801C671.608 402.89 685.838 389.18 703.392 389.18C720.946 389.18 735.176 402.89 735.176 419.801Z" fill="#BFDBFE"/>
<path fill-rule="evenodd" clip-rule="evenodd" d="M703.392 447.738C719.44 447.738 732.412 435.21 732.412 419.801C732.412 404.392 719.44 391.864 703.392 391.864C687.344 391.864 674.372 404.392 674.372 419.801C674.372 435.21 687.344 447.738 703.392 447.738ZM703.392 450.422C720.946 450.422 735.176 436.713 735.176 419.801C735.176 402.89 720.946 389.18 703.392 389.18C685.838 389.18 671.608 402.89 671.608 419.801C671.608 436.713 685.838 450.422 703.392 450.422Z" fill="#BFDBFE"/>
</g>
<g clip-path="url(#clip2_69_129019)">
<rect x="852.178" y="273.768" width="184.255" height="305.976" rx="20" fill="white"/>
<path d="M1078.81 494.303C1078.81 516.291 1060.66 534.116 1038.27 534.116C1015.89 534.116 997.739 516.291 997.739 494.303C997.739 472.315 1015.89 454.491 1038.27 454.491C1060.66 454.491 1078.81 472.315 1078.81 494.303Z" fill="white"/>
<path fill-rule="evenodd" clip-rule="evenodd" d="M1038.27 531.432C1059.11 531.432 1076.05 514.838 1076.05 494.303C1076.05 473.769 1059.11 457.175 1038.27 457.175C1017.44 457.175 1000.5 473.769 1000.5 494.303C1000.5 514.838 1017.44 531.432 1038.27 531.432ZM1038.27 534.116C1060.66 534.116 1078.81 516.291 1078.81 494.303C1078.81 472.315 1060.66 454.491 1038.27 454.491C1015.89 454.491 997.739 472.315 997.739 494.303C997.739 516.291 1015.89 534.116 1038.27 534.116Z" fill="#BFDBFE"/>
<path d="M1005.11 381.575C1005.11 410.975 980.773 434.808 950.754 434.808C920.734 434.808 896.399 410.975 896.399 381.575C896.399 352.176 920.734 328.343 950.754 328.343C980.773 328.343 1005.11 352.176 1005.11 381.575Z" fill="#BFDBFE"/>
<path d="M886.265 484.015L888.864 491.277L896.779 491.433L890.47 496.078L892.763 503.436L886.265 499.045L879.767 503.436L882.059 496.078L875.75 491.433L883.665 491.277L886.265 484.015Z" fill="#FACC15"/>
<path d="M924.037 484.015L926.636 491.277L934.551 491.433L928.243 496.078L930.535 503.436L924.037 499.045L917.539 503.436L919.831 496.078L913.523 491.433L921.438 491.277L924.037 484.015Z" fill="#FACC15"/>
<path d="M961.809 484.015L964.408 491.277L972.323 491.433L966.015 496.078L968.307 503.436L961.809 499.045L955.311 503.436L957.603 496.078L951.295 491.433L959.21 491.277L961.809 484.015Z" fill="#FACC15"/>
<path d="M999.581 484.015L1002.18 491.277L1010.1 491.433L1003.79 496.078L1006.08 503.436L999.581 499.045L993.083 503.436L995.376 496.078L989.067 491.433L996.982 491.277L999.581 484.015Z" fill="#FACC15"/>
<path d="M1037.35 484.015L1039.95 491.277L1047.87 491.433L1041.56 496.078L1043.85 503.436L1037.35 499.045L1030.86 503.436L1033.15 496.078L1026.84 491.433L1034.75 491.277L1037.35 484.015Z" fill="#FACC15"/>
</g>
<defs>
<clipPath id="clip0_69_129019">
<rect x="638.442" y="64.416" width="184.255" height="245.139" rx="20" fill="white"/>
</clipPath>
<clipPath id="clip1_69_129019">
<rect x="638.442" y="338.184" width="184.255" height="273.768" rx="20" fill="white"/>
</clipPath>
<clipPath id="clip2_69_129019">
<rect x="852.178" y="273.768" width="184.255" height="305.976" rx="20" fill="white"/>
</clipPath>
</defs>
</svg>
