<svg width="64" height="64" viewBox="0 0 64 64" fill="none" xmlns="http://www.w3.org/2000/svg">
<path d="M31.3175 16.1463L22.8425 7.67126C17.9895 9.51813 13.7946 12.7651 10.79 17H30.965C31.0638 16.9998 31.1604 16.9704 31.2425 16.9154C31.3246 16.8603 31.3886 16.7822 31.4263 16.6908C31.464 16.5995 31.4738 16.499 31.4544 16.4021C31.4351 16.3051 31.3874 16.2161 31.3175 16.1463Z" fill="#7C3AED"/>
<path d="M20.965 21H8.45376C6.15218 25.9058 5.44617 31.4096 6.43501 36.7375L21.3175 21.8538C21.3874 21.7839 21.4351 21.6949 21.4545 21.598C21.4738 21.501 21.464 21.4005 21.4263 21.3092C21.3886 21.2178 21.3246 21.1397 21.2425 21.0847C21.1604 21.0296 21.0639 21.0002 20.965 21Z" fill="#7C3AED"/>
<path d="M43 20.965V8.445C38.0925 6.15056 32.5904 5.44778 27.2637 6.435L42.1462 21.3175C42.2161 21.3874 42.3051 21.4351 42.402 21.4545C42.4989 21.4738 42.5994 21.464 42.6908 21.4263C42.7822 21.3886 42.8603 21.3246 42.9153 21.2425C42.9704 21.1604 42.9998 21.0638 43 20.965Z" fill="#7C3AED"/>
<path d="M57.565 27.2625L42.6825 42.1462C42.6126 42.2161 42.5649 42.3051 42.5456 42.402C42.5262 42.4989 42.536 42.5994 42.5737 42.6908C42.6115 42.7821 42.6754 42.8603 42.7575 42.9153C42.8396 42.9703 42.9362 42.9998 43.035 42.9999H55.5463C57.8479 38.0942 58.5539 32.5903 57.565 27.2625Z" fill="#7C3AED"/>
<path d="M47.8537 31.3175L56.3325 22.84C54.4906 17.9798 51.2413 13.7792 47 10.775V30.965C47.0002 31.0639 47.0296 31.1604 47.0847 31.2425C47.1397 31.3247 47.2178 31.3886 47.3092 31.4263C47.4005 31.464 47.501 31.4738 47.598 31.4545C47.6949 31.4351 47.7839 31.3875 47.8537 31.3175Z" fill="#7C3AED"/>
<path d="M27.71 42.7213C27.8962 42.9001 28.1444 43 28.4025 43.0001H35.86C35.9927 43 36.124 42.9736 36.2463 42.9223C36.3686 42.871 36.4795 42.7959 36.5725 42.7013L42.72 36.4513C42.9045 36.264 43.0077 36.0117 43.0075 35.7488L43 28.1476C43 28.0152 42.9736 27.8842 42.9226 27.7621C42.8715 27.64 42.7967 27.5293 42.7025 27.4363L36.4525 21.2801C36.2649 21.0953 36.0121 20.992 35.7488 20.9926L28.1438 21.0001C28.0114 21.0001 27.8804 21.0264 27.7583 21.0775C27.6362 21.1286 27.5255 21.2034 27.4325 21.2976L21.2763 27.5476C21.0915 27.7351 20.9882 27.988 20.9888 28.2513L20.9963 35.8488C20.9963 35.9832 21.0234 36.1163 21.0761 36.24C21.1287 36.3637 21.2057 36.4755 21.3025 36.5688L27.71 42.7213Z" fill="#7C3AED"/>
<path d="M32.6825 47.8537L41.1575 56.3288C46.0105 54.4819 50.2055 51.235 53.21 47H33.035C32.9362 47.0002 32.8396 47.0296 32.7575 47.0847C32.6754 47.1397 32.6115 47.2178 32.5737 47.3092C32.536 47.4005 32.5262 47.501 32.5456 47.598C32.5649 47.6949 32.6126 47.7839 32.6825 47.8537Z" fill="#7C3AED"/>
<path d="M21 43.035V55.555C25.9075 57.8495 31.4096 58.5523 36.7363 57.565L21.8538 42.6825C21.7839 42.6126 21.6949 42.5649 21.598 42.5456C21.501 42.5262 21.4005 42.536 21.3092 42.5737C21.2178 42.6115 21.1397 42.6754 21.0847 42.7575C21.0296 42.8396 21.0002 42.9362 21 43.035Z" fill="#7C3AED"/>
<path d="M16.1462 32.6825L7.66748 41.1613C9.50976 46.0209 12.759 50.221 17 53.225V33.035C16.9998 32.9362 16.9704 32.8396 16.9153 32.7575C16.8603 32.6754 16.7822 32.6115 16.6908 32.5737C16.5994 32.536 16.4989 32.5262 16.402 32.5456C16.3051 32.5649 16.2161 32.6126 16.1462 32.6825Z" fill="#7C3AED"/>
</svg>
