<svg width="64" height="64" viewBox="0 0 64 64" fill="none" xmlns="http://www.w3.org/2000/svg">
<path d="M12.3599 38.4403L15.1306 32.5656C15.4862 31.8115 16.5138 31.8115 16.8694 32.5656L19.6401 38.4403L25.8362 39.3883C26.6312 39.5099 26.948 40.5325 26.3725 41.1195L21.8899 45.6891L22.9478 52.1448C23.0836 52.9739 22.2522 53.6059 21.5408 53.2144L16 50.1648L10.4592 53.2144C9.74783 53.6059 8.91634 52.9739 9.05221 52.1448L10.1101 45.6891L5.62746 41.1195C5.05191 40.5325 5.36877 39.5099 6.16375 39.3883L12.3599 38.4403Z" stroke="#7E22CE" stroke-width="1.5" stroke-linecap="round" stroke-linejoin="round"/>
<path d="M44.3597 38.4403L47.1307 32.5656C47.4861 31.8115 48.5139 31.8115 48.8693 32.5656L51.6403 38.4403L57.8363 39.3883C58.6312 39.5099 58.948 40.5325 58.3725 41.1195L53.8899 45.6891L54.9477 52.1448C55.0837 52.9739 54.2523 53.6059 53.5408 53.2144L48 50.1648L42.4592 53.2144C41.7477 53.6059 40.9163 52.9739 41.0523 52.1448L42.1101 45.6891L37.6275 41.1195C37.052 40.5325 37.3688 39.5099 38.1637 39.3883L44.3597 38.4403Z" stroke="#7E22CE" stroke-width="1.5" stroke-linecap="round" stroke-linejoin="round"/>
<path d="M28.3597 14.4404L31.1307 8.56562C31.4861 7.81146 32.5139 7.81146 32.8693 8.56562L35.6403 14.4404L41.8363 15.3883C42.6312 15.5099 42.948 16.5326 42.3725 17.1194L37.8899 21.689L38.9477 28.1448C39.0837 28.9739 38.2523 29.6059 37.5408 29.2144L32 26.1647L26.4592 29.2144C25.7478 29.6059 24.9164 28.9739 25.0522 28.1448L26.1101 21.689L21.6275 17.1194C21.0519 16.5326 21.3688 15.5099 22.1638 15.3883L28.3597 14.4404Z" stroke="#7E22CE" stroke-width="1.5" stroke-linecap="round" stroke-linejoin="round"/>
</svg>
