<svg width="64" height="64" viewBox="0 0 64 64" fill="none" xmlns="http://www.w3.org/2000/svg">
<path fill-rule="evenodd" clip-rule="evenodd" d="M24.5084 8.62793C25.7897 8.09265 27.1645 7.81702 28.5531 7.81702C29.9417 7.81702 31.3165 8.09265 32.5978 8.62793C33.8791 9.16322 35.0414 9.94751 36.0173 10.9353C36.9932 11.9232 37.7634 13.0949 38.2831 14.3826C38.8013 15.6665 39.0602 17.0403 39.045 18.4247L39.0287 41.9978L39.0285 42.0129C38.9994 43.8526 38.2482 45.6072 36.9369 46.898C35.6256 48.1887 33.8594 48.9122 32.0194 48.9122C30.1794 48.9122 28.4132 48.1887 27.1019 46.898C25.7906 45.6072 25.0393 43.8526 25.0102 42.0129L25.01 41.9971V24C25.01 22.8955 25.9054 22 27.01 22C28.1146 22 29.01 22.8955 29.01 24V41.9635C29.026 42.7484 29.3481 43.4963 29.9079 44.0473C30.4709 44.6015 31.2293 44.9122 32.0194 44.9122C32.8094 44.9122 33.5678 44.6015 34.1309 44.0473C34.6908 43.4962 35.0129 42.7481 35.0288 41.9629L35.045 18.3997L35.0451 18.3883C35.0556 17.5291 34.8953 16.6764 34.5738 15.8796C34.2522 15.0828 33.7757 14.3578 33.1718 13.7466C32.5679 13.1353 31.8487 12.65 31.0559 12.3188C30.263 11.9876 29.4124 11.817 28.5531 11.817C27.6939 11.817 26.8432 11.9876 26.0504 12.3188C25.2575 12.65 24.5383 13.1353 23.9345 13.7466C23.3306 14.3578 22.8541 15.0828 22.5325 15.8796C22.2109 16.6764 22.0507 17.5291 22.0611 18.3883L22.0612 18.4004V42.1545L22.061 42.169C22.042 43.4861 22.2849 44.7939 22.7758 46.0163C23.2667 47.2387 23.9956 48.3514 24.9203 49.2895C25.845 50.2277 26.947 50.9727 28.1622 51.4812C29.3773 51.9897 30.6815 52.2515 31.9987 52.2515C33.316 52.2515 34.6202 51.9897 35.8353 51.4812C37.0505 50.9727 38.1525 50.2277 39.0772 49.2895C40.0019 48.3514 40.7308 47.2387 41.2217 46.0163C41.7126 44.7939 41.9555 43.4861 41.9365 42.169L41.9362 42.1545V19.9675C41.9362 18.863 42.8317 17.9675 43.9362 17.9675C45.0408 17.9675 45.9362 18.863 45.9362 19.9675V42.1262C45.9609 43.9683 45.6202 45.7971 44.9336 47.5069C44.2452 49.2212 43.2228 50.7817 41.926 52.0974C40.6291 53.4132 39.0837 54.458 37.3794 55.1711C35.6752 55.8843 33.8462 56.2515 31.9987 56.2515C30.1513 56.2515 28.3223 55.8843 26.6181 55.1711C24.9138 54.458 23.3684 53.4132 22.0715 52.0974C20.7747 50.7817 19.7523 49.2212 19.0639 47.5069C18.3773 45.7971 18.0366 43.9683 18.0612 42.1261V18.424C18.0461 17.0399 18.3051 15.6663 18.8232 14.3826C19.3429 13.0949 20.113 11.9232 21.0889 10.9353C22.0649 9.94751 23.2271 9.16322 24.5084 8.62793Z" fill="#059669"/>
</svg>
