<svg width="24" height="24" viewBox="0 0 24 24" fill="none" xmlns="http://www.w3.org/2000/svg">
<path d="M10.67 15.097C10.164 17.823 9.54802 20.437 7.72002 21.802C7.15702 17.682 8.54902 14.587 9.19502 11.302C8.09302 9.392 9.32802 5.547 11.652 6.494C14.512 7.66 9.17503 13.596 12.758 14.338C16.499 15.112 18.027 7.655 15.707 5.229C12.355 1.728 5.95002 5.15 6.73802 10.163C6.93002 11.389 8.15902 11.761 7.22902 13.453C5.08402 12.962 4.44402 11.22 4.52702 8.897C4.65902 5.097 7.84402 2.435 11.038 2.067C15.078 1.601 18.869 3.594 19.392 7.507C19.982 11.923 17.569 16.707 13.25 16.362C12.079 16.269 11.587 15.672 10.67 15.097V15.097Z" fill="#475569"/>
</svg>
