<svg width="64" height="64" viewBox="0 0 64 64" fill="none" xmlns="http://www.w3.org/2000/svg">
<path d="M8.26249 44.625C7.87643 44.6252 7.49857 44.5136 7.17451 44.3038C6.85045 44.094 6.59405 43.7948 6.43624 43.4425C4.52683 39.1781 3.71492 34.5037 4.0745 29.8451C4.43409 25.1866 5.95373 20.6922 8.49495 16.7713C11.0362 12.8504 14.5182 9.62779 18.6237 7.39711C22.7292 5.16642 27.3276 3.99858 32 4C32.5304 4 33.0391 4.21071 33.4142 4.58579C33.7893 4.96086 34 5.46957 34 6V32C34.0001 32.3862 33.8883 32.7642 33.6783 33.0882C33.4682 33.4123 33.1688 33.6686 32.8162 33.8263L9.07874 44.445C8.82246 44.5621 8.54425 44.6234 8.26249 44.625Z" fill="#2563EB"/>
<path d="M39.1988 8.52251C39.0537 8.49311 38.904 8.49624 38.7604 8.5317C38.6167 8.56716 38.4827 8.63406 38.368 8.72756C38.2534 8.82107 38.1609 8.93886 38.0972 9.07244C38.0336 9.20601 38.0004 9.35205 38 9.50001V32C37.999 33.158 37.6634 34.2911 37.0336 35.2628C36.4038 36.2346 35.5066 37.0037 34.45 37.4775L12.8913 47.125C12.7576 47.1847 12.6387 47.2729 12.5429 47.3836C12.4471 47.4942 12.3768 47.6245 12.3368 47.7653C12.2969 47.9061 12.2884 48.0539 12.3118 48.1983C12.3352 48.3428 12.3901 48.4803 12.4725 48.6013C14.1224 51.0278 16.1704 53.1582 18.53 54.9025C23.0006 58.2282 28.4281 60.0166 34 60C48.3363 60 60 48.3363 60 34C60 21.4438 51.0525 10.9375 39.1988 8.52251Z" fill="#2563EB"/>
</svg>
