<svg width="16" height="16" viewBox="0 0 16 16" fill="none" xmlns="http://www.w3.org/2000/svg">
<path d="M8 13.3333C9.41448 13.3333 10.771 12.7713 11.7712 11.7712C12.7714 10.771 13.3333 9.41441 13.3333 7.99992C13.3333 6.58543 12.7714 5.22888 11.7712 4.22868C10.771 3.22849 9.41448 2.66659 8 2.66659C6.58551 2.66659 5.22895 3.22849 4.22876 4.22868C3.22856 5.22888 2.66666 6.58543 2.66666 7.99992C2.66666 9.41441 3.22856 10.771 4.22876 11.7712C5.22895 12.7713 6.58551 13.3333 8 13.3333ZM8 14.6666C4.318 14.6666 1.33333 11.6819 1.33333 7.99992C1.33333 4.31792 4.318 1.33325 8 1.33325C11.682 1.33325 14.6667 4.31792 14.6667 7.99992C14.6667 11.6819 11.682 14.6666 8 14.6666Z" fill="#F87171"/>
</svg>
