<svg width="24" height="25" viewBox="0 0 24 25" fill="none" xmlns="http://www.w3.org/2000/svg">
<path d="M10.757 12.5L15.707 17.45C15.8026 17.5422 15.8787 17.6526 15.9311 17.7746C15.9836 17.8966 16.0111 18.0278 16.0123 18.1606C16.0135 18.2934 15.9882 18.4251 15.9379 18.548C15.8876 18.6708 15.8133 18.7825 15.7194 18.8764C15.6256 18.9703 15.5139 19.0445 15.391 19.0948C15.2681 19.1451 15.1364 19.1704 15.0036 19.1692C14.8709 19.1681 14.7396 19.1405 14.6176 19.0881C14.4956 19.0357 14.3853 18.9595 14.293 18.864L8.63605 13.207C8.44858 13.0195 8.34326 12.7652 8.34326 12.5C8.34326 12.2348 8.44858 11.9805 8.63605 11.793L14.293 6.136C14.4817 5.95384 14.7343 5.85305 14.9964 5.85532C15.2586 5.8576 15.5095 5.96277 15.6949 6.14818C15.8803 6.33359 15.9854 6.5844 15.9877 6.8466C15.99 7.10879 15.8892 7.3614 15.707 7.55L10.757 12.5Z" fill="#94A3B8"/>
</svg>
