<svg width="16" height="16" viewBox="0 0 16 16" fill="none" xmlns="http://www.w3.org/2000/svg">
<path d="M8 13.3334C9.41449 13.3334 10.771 12.7715 11.7712 11.7713C12.7714 10.7711 13.3333 9.41453 13.3333 8.00004C13.3333 6.58555 12.7714 5.229 11.7712 4.2288C10.771 3.22861 9.41449 2.66671 8 2.66671C6.58551 2.66671 5.22896 3.22861 4.22876 4.2288C3.22857 5.229 2.66667 6.58555 2.66667 8.00004C2.66667 9.41453 3.22857 10.7711 4.22876 11.7713C5.22896 12.7715 6.58551 13.3334 8 13.3334V13.3334ZM8 14.6667C4.318 14.6667 1.33333 11.682 1.33333 8.00004C1.33333 4.31804 4.318 1.33337 8 1.33337C11.682 1.33337 14.6667 4.31804 14.6667 8.00004C14.6667 11.682 11.682 14.6667 8 14.6667Z" fill="#22C55E"/>
</svg>
