<svg width="1350" height="200" viewBox="0 0 1350 200" fill="none" xmlns="http://www.w3.org/2000/svg">
<path d="M121.494 167.925C121.494 167.925 126.738 120.98 112.188 76.273C98.5007 33.9968 70.9988 11.5795 54.3377 4.86393C22.8384 -7.70382 20.0243 26.9934 43.6248 51.0096C60.9254 68.662 102.562 105.054 109.725 166.774L121.494 167.925Z" fill="#BA68C8"/>
<path opacity="0.7" d="M121.494 167.925C121.494 167.925 126.738 120.98 112.188 76.273C98.5007 33.9968 70.9988 11.5795 54.3377 4.86393C22.8384 -7.70382 20.0243 26.9934 43.6248 51.0096C60.9254 68.662 102.562 105.054 109.725 166.774L121.494 167.925Z" fill="white"/>
<path d="M45.8314 14.5537C64.8589 27.3453 115.993 64.281 117.848 167.573" stroke="#FAFAFA" stroke-width="1.08419" stroke-miterlimit="10" stroke-linecap="round"/>
<path d="M108.095 200C98.3089 152.671 78.3221 135.498 42.6015 117.206C27.3155 109.403 9.40728 100.705 2.94752 90.7596C-3.51224 80.8142 -0.250374 67.447 21.7512 67.7348C61.9488 68.2784 107.743 116.727 113.851 169.812L108.095 200Z" fill="#BA68C8"/>
<path opacity="0.8" d="M108.095 200C98.3089 152.671 78.3221 135.498 42.6015 117.206C27.3155 109.403 9.40728 100.705 2.94752 90.7596C-3.51224 80.8142 -0.250374 67.447 21.7512 67.7348C61.9488 68.2784 107.743 116.727 113.851 169.812L108.095 200Z" fill="white"/>
<path d="M18.3615 78.032C48.7095 82.1573 96.6461 117.526 111.868 180.365" stroke="#FAFAFA" stroke-width="1.08419" stroke-miterlimit="10" stroke-linecap="round"/>
<path d="M1229.25 145.764C1241.56 122.099 1251.12 55.7106 1235.29 25.0107C1219.46 -5.68913 1195.92 -3.22675 1192.28 6.71872C1189.08 15.8967 1196.98 32.302 1207.21 51.8412C1217.45 71.3803 1226.08 113.241 1216.39 132.748L1229.25 145.764Z" fill="#BA68C8"/>
<path opacity="0.7" d="M1229.25 145.764C1241.56 122.099 1251.12 55.7106 1235.29 25.0107C1219.46 -5.68913 1195.92 -3.22675 1192.28 6.71872C1189.08 15.8967 1196.98 32.302 1207.21 51.8412C1217.45 71.3803 1226.08 113.241 1216.39 132.748L1229.25 145.764Z" fill="white"/>
<path d="M1207.82 8.31763C1217.89 16.4083 1246.74 65.8799 1226.56 133.771" stroke="#FAFAFA" stroke-width="1.08419" stroke-miterlimit="10" stroke-linecap="round"/>
<path d="M1225.35 170.835C1217.93 155.997 1201.68 131.437 1212.75 114.584C1223.81 97.731 1235.39 112.633 1244.28 101.632C1253.17 90.6316 1243 72.8512 1250.67 63.2575C1265.51 44.3899 1276.26 66.2956 1287.9 63.4175C1296.31 61.3388 1305.68 42.695 1329.88 44.9655C1354.09 47.236 1352.88 66.4234 1342.1 75.4415C1331.32 84.4596 1318.53 93.4458 1326.85 106.973C1334.2 118.965 1338.01 141.126 1312.84 149.729C1288.79 157.947 1300.69 168.373 1296.85 180.141C1293.01 191.909 1270.31 203.07 1246.16 193.988L1225.35 170.835Z" fill="#BA68C8"/>
<path opacity="0.8" d="M1225.35 170.835C1217.93 155.997 1201.68 131.437 1212.75 114.584C1223.81 97.731 1235.39 112.633 1244.28 101.632C1253.17 90.6316 1243 72.8512 1250.67 63.2575C1265.51 44.3899 1276.26 66.2956 1287.9 63.4175C1296.31 61.3388 1305.68 42.695 1329.88 44.9655C1354.09 47.236 1352.88 66.4234 1342.1 75.4415C1331.32 84.4596 1318.53 93.4458 1326.85 106.973C1334.2 118.965 1338.01 141.126 1312.84 149.729C1288.79 157.947 1300.69 168.373 1296.85 180.141C1293.01 191.909 1270.31 203.07 1246.16 193.988L1225.35 170.835Z" fill="white"/>
<path d="M1333.21 55.8386C1306.99 62.874 1244.18 113.912 1238.87 177.966" stroke="#FAFAFA" stroke-width="1.08419" stroke-miterlimit="10" stroke-linecap="round"/>
<path d="M1314.31 123.09C1301.36 120.148 1268.45 119.733 1256.14 125.713" stroke="#FAFAFA" stroke-width="1.08419" stroke-miterlimit="10" stroke-linecap="round"/>
<path d="M1263.46 68.886C1263.46 68.886 1273.06 87.4658 1271.68 103.104" stroke="#FAFAFA" stroke-width="1.08419" stroke-miterlimit="10" stroke-linecap="round"/>
</svg>
