<svg width="970" height="491" viewBox="0 0 970 491" fill="none" xmlns="http://www.w3.org/2000/svg">
<path d="M969.316 382.23C969.202 380.15 968.602 378.127 967.563 376.322C966.524 374.516 965.076 372.98 963.336 371.837L876.736 321.854C873.539 319.935 870.756 321.502 870.756 325.339V409.028C870.865 411.109 871.463 413.135 872.502 414.941C873.541 416.747 874.992 418.282 876.736 419.422L913.001 440.336L924.449 486.673C924.411 487.522 924.711 488.35 925.284 488.977C925.857 489.604 926.655 489.977 927.503 490.015C928.351 490.054 929.18 489.753 929.807 489.18C930.433 488.608 930.807 487.809 930.845 486.961L941.334 456.677L963.495 469.469C966.693 471.388 969.476 469.821 969.476 466.015L969.316 382.23Z" fill="#BA68C8"/>
<path opacity="0.5" d="M969.316 382.23C969.202 380.15 968.602 378.127 967.563 376.322C966.524 374.516 965.076 372.98 963.336 371.837L876.736 321.854C873.539 319.935 870.756 321.502 870.756 325.339V409.028C870.865 411.109 871.463 413.135 872.502 414.941C873.541 416.747 874.992 418.282 876.736 419.422L913.001 440.336L924.449 486.673C924.411 487.522 924.711 488.35 925.284 488.977C925.857 489.604 926.655 489.977 927.503 490.015C928.351 490.054 929.18 489.753 929.807 489.18C930.433 488.608 930.807 487.809 930.845 486.961L941.334 456.677L963.495 469.469C966.693 471.388 969.476 469.821 969.476 466.015L969.316 382.23Z" fill="white"/>
<path d="M903.567 359.973C905.334 360.978 906.968 362.203 908.428 363.618C909.733 364.889 910.901 366.293 911.913 367.807C912.792 369.148 913.511 370.586 914.056 372.093C914.507 373.374 914.797 374.706 914.919 376.058C914.919 377.433 915.079 378.872 915.079 380.375C915.079 381.878 915.079 383.253 914.919 384.532C914.841 385.563 914.547 386.565 914.056 387.475C913.577 388.314 912.819 388.96 911.913 389.297C910.773 389.61 909.568 389.61 908.428 389.297C906.707 388.899 905.065 388.218 903.567 387.283C901.791 386.288 900.147 385.074 898.674 383.669C897.364 382.435 896.204 381.051 895.22 379.544C893.548 377.071 892.505 374.228 892.182 371.261C892.182 369.886 892.182 368.447 892.182 366.944C892.182 365.441 892.182 364.066 892.182 362.819C892.281 361.778 892.585 360.767 893.078 359.845C893.54 358.992 894.304 358.342 895.22 358.022C896.338 357.67 897.529 357.614 898.674 357.862C900.417 358.272 902.073 358.986 903.567 359.973ZM934.139 379.448C934.466 379.207 934.854 379.063 935.258 379.032C935.839 379.07 936.401 379.257 936.889 379.576L941.462 382.23C941.986 382.528 942.444 382.931 942.805 383.413C943.104 383.823 943.272 384.313 943.285 384.82C943.297 384.926 943.297 385.034 943.285 385.14C943.229 385.259 943.153 385.367 943.061 385.46L905.39 413.282C905.062 413.525 904.676 413.679 904.27 413.729C903.684 413.691 903.12 413.492 902.639 413.154L898.067 410.531C897.535 410.23 897.076 409.815 896.723 409.316C896.415 408.921 896.237 408.441 896.212 407.941C896.187 407.825 896.187 407.705 896.212 407.589C896.256 407.465 896.333 407.354 896.436 407.27L934.139 379.448ZM907.596 379.448C907.641 378.98 907.641 378.509 907.596 378.041V373.915C907.639 373.415 907.639 372.912 907.596 372.412C907.492 371.289 907.155 370.2 906.605 369.215C905.868 368.017 904.817 367.044 903.567 366.4C902.096 365.537 901.073 365.313 900.369 365.697C900.067 365.94 899.821 366.246 899.65 366.594C899.479 366.942 899.386 367.324 899.378 367.711C899.378 367.999 899.378 368.447 899.378 369.119C899.378 369.79 899.378 370.43 899.378 371.133C899.378 371.837 899.378 372.54 899.378 373.212C899.378 373.883 899.378 374.395 899.378 374.747C899.497 375.867 899.834 376.953 900.369 377.945C901.153 379.161 902.261 380.136 903.567 380.759C905.038 381.622 906.061 381.846 906.605 381.462C906.894 381.231 907.13 380.94 907.295 380.608C907.461 380.277 907.553 379.914 907.564 379.544L907.596 379.448ZM936.569 405.703C938.346 406.708 939.99 407.933 941.462 409.348C942.759 410.618 943.916 412.022 944.916 413.537C945.819 414.863 946.539 416.305 947.058 417.823C947.503 419.107 947.803 420.437 947.954 421.788C947.954 423.163 947.954 424.602 947.954 426.105C947.954 427.608 947.954 428.983 947.954 430.262C947.855 431.293 947.551 432.294 947.058 433.204C946.84 433.635 946.538 434.018 946.17 434.331C945.802 434.644 945.376 434.881 944.916 435.027C943.788 435.358 942.59 435.358 941.462 435.027C939.732 434.629 938.079 433.948 936.569 433.013C934.803 432.018 933.17 430.804 931.708 429.399C930.397 428.157 929.228 426.774 928.223 425.274C927.338 423.937 926.619 422.498 926.08 420.988C925.633 419.706 925.343 418.375 925.217 417.023C925.217 415.616 925.217 414.177 925.217 412.674C925.217 411.171 925.217 409.796 925.217 408.549C925.29 407.507 925.585 406.493 926.08 405.575C926.55 404.728 927.311 404.08 928.223 403.752C929.368 403.47 930.564 403.47 931.708 403.752C933.436 404.143 935.082 404.836 936.569 405.799V405.703ZM940.631 425.274C940.656 424.805 940.656 424.335 940.631 423.867V419.837C940.631 419.198 940.631 418.686 940.631 418.366C940.497 417.249 940.161 416.165 939.639 415.168C938.845 413.96 937.74 412.988 936.441 412.354C934.97 411.491 933.947 411.267 933.403 411.651C933.101 411.894 932.855 412.2 932.684 412.548C932.513 412.896 932.42 413.277 932.412 413.665C932.379 414.134 932.379 414.604 932.412 415.072C932.412 415.712 932.412 416.384 932.412 417.087C932.412 417.791 932.412 418.494 932.412 419.198C932.382 419.698 932.382 420.2 932.412 420.701C932.511 421.825 932.849 422.915 933.403 423.899C934.131 425.104 935.184 426.079 936.441 426.713C937.912 427.576 938.936 427.8 939.639 427.416C939.939 427.164 940.183 426.852 940.354 426.499C940.524 426.146 940.619 425.761 940.631 425.37V425.274Z" fill="#FAFAFA"/>
<path d="M594.682 61.3526C594.565 59.2736 593.964 57.2507 592.926 55.446C591.887 53.6412 590.441 52.1046 588.702 50.9594L502.102 1.00817C498.904 -0.910571 496.122 0.624427 496.122 4.46191V88.151C496.234 90.2355 496.833 92.2647 497.871 94.0754C498.91 95.8862 500.359 97.4278 502.102 98.5762L538.367 119.49L549.815 165.732C549.94 166.448 550.306 167.101 550.852 167.581C551.398 168.062 552.091 168.342 552.818 168.375C553.544 168.409 554.26 168.194 554.848 167.766C555.436 167.337 555.86 166.722 556.051 166.02L566.54 135.736L588.702 148.527C591.899 150.446 594.682 148.911 594.682 145.074V61.3526Z" fill="#BA68C8"/>
<path opacity="0.5" d="M594.682 61.3526C594.565 59.2736 593.964 57.2507 592.926 55.446C591.887 53.6412 590.441 52.1046 588.702 50.9594L502.102 1.00817C498.904 -0.910571 496.122 0.624427 496.122 4.46191V88.151C496.234 90.2355 496.833 92.2647 497.871 94.0754C498.91 95.8862 500.359 97.4278 502.102 98.5762L538.367 119.49L549.815 165.732C549.94 166.448 550.306 167.101 550.852 167.581C551.398 168.062 552.091 168.342 552.818 168.375C553.544 168.409 554.26 168.194 554.848 167.766C555.436 167.337 555.86 166.722 556.051 166.02L566.54 135.736L588.702 148.527C591.899 150.446 594.682 148.911 594.682 145.074V61.3526Z" fill="white"/>
<path d="M528.933 39.2231C530.7 40.2284 532.334 41.4534 533.794 42.8687C535.091 44.1462 536.259 45.5495 537.279 47.0579C538.17 48.3912 538.89 49.8308 539.422 51.3431C539.872 52.6241 540.162 53.9561 540.285 55.3085C540.285 56.6836 540.445 58.1227 540.445 59.6257C540.445 61.1287 540.445 62.5038 540.285 63.7829C540.212 64.8243 539.918 65.8382 539.422 66.757C538.958 67.6018 538.193 68.2411 537.279 68.5478C536.153 68.915 534.949 68.9703 533.794 68.7077C532.068 68.3092 530.424 67.6169 528.933 66.6611C527.15 65.6772 525.505 64.4622 524.04 63.0474C522.73 61.8138 521.57 60.4291 520.586 58.9221C519.683 57.5962 518.963 56.1548 518.444 54.6369C517.999 53.3524 517.699 52.0225 517.548 50.6715C517.548 49.2645 517.548 47.8254 517.548 46.3544C517.548 44.8833 517.548 43.4443 517.548 42.1971C517.647 41.1562 517.951 40.1454 518.444 39.2231C518.906 38.3702 519.67 37.7203 520.586 37.4002C521.72 37.1172 522.906 37.1172 524.04 37.4002C525.764 37.7209 527.419 38.3376 528.933 39.2231ZM559.505 58.6983C559.839 58.4722 560.223 58.3297 560.624 58.2825C561.21 58.321 561.774 58.5201 562.255 58.8582L566.828 61.4804C567.346 61.7877 567.801 62.189 568.171 62.6637C568.467 63.0749 568.634 63.5646 568.651 64.0708C568.663 64.1877 568.663 64.3056 568.651 64.4225C568.587 64.5363 568.512 64.6435 568.427 64.7423L530.756 92.564C530.421 92.79 530.037 92.9326 529.636 92.9798C529.05 92.9413 528.486 92.7422 528.005 92.4042L523.432 89.7819C522.902 89.4923 522.443 89.088 522.089 88.5987C521.794 88.1875 521.627 87.6977 521.61 87.1916C521.579 87.0871 521.579 86.9762 521.61 86.8718C521.653 86.7374 521.73 86.6163 521.834 86.52L559.505 58.6983ZM532.962 58.6983C533.009 58.2304 533.009 57.759 532.962 57.2912V53.1659C533.005 52.6765 533.005 52.1842 532.962 51.6949C532.868 50.5695 532.53 49.4782 531.971 48.497C531.245 47.2822 530.192 46.296 528.933 45.6508C527.462 44.8194 526.438 44.5636 525.735 44.9793C525.439 45.2278 525.198 45.5353 525.027 45.8822C524.856 46.229 524.76 46.6077 524.744 46.9939C524.744 47.2498 524.744 47.7295 524.744 48.3691C524.744 49.0086 524.744 49.6802 524.744 50.4157C524.744 51.1512 524.744 51.8228 524.744 52.4943C524.744 53.1659 524.744 53.6776 524.744 53.9973C524.869 55.1165 525.205 56.2017 525.735 57.1952C526.519 58.4117 527.627 59.3861 528.933 60.0094C530.404 60.8728 531.427 61.0967 531.971 60.713C532.266 60.4848 532.508 60.1948 532.679 59.8633C532.85 59.5319 532.947 59.167 532.962 58.7942V58.6983ZM561.935 84.9531C563.721 85.9586 565.366 87.1951 566.828 88.6306C568.132 89.8822 569.29 91.2768 570.282 92.7879C571.179 94.1173 571.899 95.5578 572.424 97.0731C572.866 98.3585 573.166 99.6881 573.32 101.038C573.32 102.446 573.32 103.885 573.32 105.388C573.32 106.891 573.32 108.266 573.32 109.513C573.221 110.554 572.917 111.565 572.424 112.487C571.962 113.34 571.198 113.99 570.282 114.31C569.152 114.626 567.957 114.626 566.828 114.31C565.098 113.911 563.445 113.231 561.935 112.295C560.181 111.282 558.55 110.069 557.074 108.681C555.77 107.422 554.602 106.028 553.589 104.524C552.71 103.184 551.991 101.746 551.446 100.239C550.996 98.958 550.706 97.626 550.583 96.2736C550.583 94.8985 550.423 93.4595 550.423 91.9565C550.423 90.4534 550.423 89.0783 550.583 87.7992C550.66 86.7585 550.954 85.7454 551.446 84.8251C551.926 83.9937 552.685 83.3592 553.589 83.0343C554.715 82.6715 555.915 82.6054 557.074 82.8424C558.81 83.2921 560.454 84.0386 561.935 85.049V84.9531ZM565.997 104.524C566.022 104.056 566.022 103.586 565.997 103.117V99.0878C565.997 98.4482 565.997 97.9365 565.997 97.6167C565.886 96.4946 565.549 95.4065 565.005 94.4188C564.223 93.1927 563.116 92.2075 561.807 91.5727C560.336 90.7412 559.313 90.4854 558.769 90.9011C558.462 91.1395 558.213 91.4448 558.041 91.7939C557.869 92.143 557.779 92.5267 557.778 92.9158C557.743 93.3735 557.743 93.8332 557.778 94.2909C557.778 94.9305 557.778 95.6021 557.778 96.3376C557.778 97.0731 557.778 97.7446 557.778 98.4162C557.746 98.9167 557.746 99.4187 557.778 99.9192C557.872 101.045 558.21 102.136 558.769 103.117C559.495 104.332 560.548 105.318 561.807 105.963C563.278 106.795 564.344 107.019 565.005 106.635C565.308 106.392 565.553 106.086 565.724 105.737C565.896 105.389 565.989 105.008 565.997 104.62V104.524Z" fill="#FAFAFA"/>
<path d="M0.127919 379.64C0.241588 377.56 0.841933 375.536 1.8806 373.731C2.91927 371.926 4.36725 370.39 6.108 369.247L92.7072 319.263C95.9051 317.345 98.6872 318.912 98.6872 322.749V406.438C98.5786 408.519 97.9804 410.545 96.9413 412.351C95.9021 414.157 94.4515 415.692 92.7072 416.831L56.443 437.746L44.9945 484.019C45.0326 484.867 44.7323 485.696 44.1596 486.323C43.5869 486.949 42.7886 487.323 41.9405 487.361C41.0924 487.399 40.2638 487.099 39.6371 486.526C39.0104 485.953 38.6368 485.155 38.5987 484.307L28.1415 454.023L5.98008 466.815C2.78218 468.733 0 467.166 0 463.361L0.127919 379.64Z" fill="#BA68C8"/>
<g opacity="0.5">
<path d="M0.127919 379.64C0.241588 377.56 0.841933 375.536 1.8806 373.731C2.91927 371.926 4.36725 370.39 6.108 369.247L92.7072 319.263C95.9051 317.345 98.6872 318.912 98.6872 322.749V406.438C98.5786 408.519 97.9804 410.545 96.9413 412.351C95.9021 414.157 94.4515 415.692 92.7072 416.831L56.443 437.746L44.9945 484.019C45.0326 484.867 44.7323 485.696 44.1596 486.323C43.5869 486.949 42.7886 487.323 41.9405 487.361C41.0924 487.399 40.2638 487.099 39.6371 486.526C39.0104 485.953 38.6368 485.155 38.5987 484.307L28.1415 454.023L5.98008 466.815C2.78218 468.733 0 467.166 0 463.361L0.127919 379.64Z" fill="white"/>
</g>
<path d="M30.3799 373.404C32.1109 372.328 34.0152 371.56 36.0083 371.133C37.3466 370.863 38.7311 370.929 40.0376 371.325C41.0887 371.704 41.9646 372.455 42.5 373.436C43.0719 374.492 43.41 375.659 43.4914 376.858C43.6193 378.329 43.6832 379.928 43.6832 381.654C43.6832 383.381 43.6193 385.044 43.4914 386.643C43.3513 388.213 43.0183 389.76 42.5 391.248C41.8871 392.986 41.0599 394.64 40.0376 396.173C38.8805 397.919 37.5287 399.528 36.0083 400.97C34.3088 402.589 32.4188 403.996 30.3799 405.159C28.6281 406.231 26.7177 407.019 24.7197 407.493C23.396 407.788 22.0182 407.733 20.7223 407.334C19.6712 406.954 18.7953 406.204 18.2599 405.223C17.6778 404.169 17.3288 403.002 17.2366 401.801C17.2366 400.33 17.2366 398.603 17.2366 397.004C17.2366 395.405 17.2366 393.615 17.2366 392.016C17.3895 390.445 17.7332 388.898 18.2599 387.411C18.8594 385.667 19.6874 384.011 20.7223 382.486C21.8852 380.743 23.2248 379.125 24.7197 377.657C26.4263 376.014 28.3271 374.586 30.3799 373.404ZM65.5569 355.144C65.9198 354.444 66.3481 353.78 66.836 353.161C67.3741 352.547 68.012 352.028 68.7228 351.626L74.0313 348.428C74.4724 348.103 75.0241 347.965 75.5663 348.044C75.9501 348.044 76.1419 348.46 76.1419 348.972C76.1644 349.142 76.1644 349.314 76.1419 349.484L75.8861 350.155L32.3307 432.597C31.968 433.287 31.5396 433.94 31.0515 434.548C30.5203 435.169 29.8811 435.689 29.1648 436.083L23.8882 439.281C23.4344 439.605 22.8735 439.742 22.3212 439.664C21.9375 439.664 21.7456 439.249 21.7456 438.737C21.7232 438.567 21.7232 438.395 21.7456 438.225L22.0015 437.554L65.5569 355.144ZM35.0489 390.736C35.0925 390.162 35.0925 389.584 35.0489 389.01V384.245C35.0952 383.702 35.0952 383.156 35.0489 382.614C35.0314 382.166 34.9199 381.726 34.7215 381.324C34.5232 380.922 34.2425 380.566 33.8977 380.279C33.2581 379.832 32.0748 380.279 30.3799 381.079C29.0718 381.738 27.9553 382.722 27.1376 383.938C26.32 385.153 25.8287 386.558 25.711 388.018C25.6642 388.604 25.6642 389.192 25.711 389.777C25.711 390.545 25.711 391.344 25.711 392.175C25.711 393.007 25.711 393.774 25.711 394.542C25.661 395.074 25.661 395.609 25.711 396.141C25.711 396.592 25.8148 397.038 26.0144 397.442C26.2141 397.847 26.5042 398.201 26.8623 398.475C27.5018 398.923 28.6531 398.635 30.3799 397.676C31.8229 396.952 33.0396 395.846 33.8977 394.478C34.5345 393.323 34.9264 392.049 35.0489 390.736ZM68.5309 382.422C70.2763 381.345 72.1894 380.566 74.1912 380.119C75.5188 379.849 76.893 379.915 78.1886 380.311C79.2397 380.69 80.1156 381.441 80.651 382.422C81.2331 383.476 81.5821 384.643 81.6743 385.844C81.6743 387.315 81.8342 389.042 81.8342 390.64C81.8342 392.239 81.8342 394.03 81.6743 395.629C81.5239 397.2 81.1802 398.747 80.651 400.234C80.0456 401.985 79.2181 403.651 78.1886 405.191C75.7392 408.888 72.4523 411.956 68.5949 414.145C66.8582 415.224 64.9571 416.013 62.9666 416.48C61.6337 416.791 60.2412 416.736 58.9372 416.32C57.8799 415.951 57.0005 415.198 56.4748 414.209C55.8991 413.154 55.5608 411.986 55.4835 410.787C55.4835 409.348 55.2916 407.589 55.2916 406.022C55.2916 404.455 55.2916 402.601 55.4835 401.002C55.6216 399.442 55.9546 397.906 56.4748 396.429C57.0874 394.681 57.9145 393.016 58.9372 391.472C60.1017 389.721 61.4528 388.102 62.9666 386.643C64.6224 384.964 66.4934 383.513 68.5309 382.326V382.422ZM73.1998 399.627C73.2434 399.052 73.2434 398.475 73.1998 397.9V393.167C73.2461 392.624 73.2461 392.079 73.1998 391.536C73.2023 391.084 73.0996 390.638 72.8998 390.233C72.7 389.828 72.4086 389.474 72.0486 389.201C71.409 388.754 70.2578 389.01 68.5309 390.001C67.0934 390.733 65.8787 391.837 65.0132 393.199C64.3956 394.339 64.0047 395.588 63.862 396.876C63.8312 397.452 63.8312 398.028 63.862 398.603C63.862 399.403 63.862 400.202 63.862 401.002C63.862 401.801 63.862 402.633 63.862 403.368C63.8286 403.901 63.8286 404.435 63.862 404.967C63.8795 405.415 63.991 405.855 64.1894 406.257C64.3877 406.659 64.6684 407.015 65.0132 407.302C65.6528 407.749 66.836 407.493 68.5309 406.502C69.9748 405.779 71.1919 404.673 72.0486 403.304C72.7081 402.148 73.1014 400.858 73.1998 399.531V399.627Z" fill="#FAFAFA"/>
</svg>
